# Blender 4.4.1
# www.blender.org
o Plane
v -0.917969 0.000000 0.671875
v 0.001505 -0.917968 0.671875
v -0.917969 0.000000 -0.671875
v 0.001505 -0.917968 -0.671875
v -0.041598 -0.041667 1.000000
v -0.041598 -0.041667 -1.000000
v -0.541667 0.000000 -1.000000
v -0.541667 0.000000 1.000000
v -0.250000 -0.000000 1.000000
v -0.250000 0.000000 -1.000000
v 0.000888 -0.541666 1.000000
v 0.000888 -0.541666 -1.000000
v 0.000410 -0.250000 -1.000000
v 0.000410 -0.250000 1.000000
v -0.944011 0.000000 -0.527344
v -0.963542 0.000000 -0.364583
v -0.975261 0.000000 -0.186198
v -0.979167 0.000000 0.000000
v -0.975261 0.000000 0.186198
v -0.963542 0.000000 0.364583
v -0.944011 0.000000 0.527344
v 0.000968 -0.590250 0.999349
v 0.001051 -0.641275 0.994792
v 0.001137 -0.693277 0.982422
v 0.001221 -0.744791 0.958333
v 0.001302 -0.794351 0.918620
v 0.001378 -0.840494 0.859375
v 0.001445 -0.881754 0.776693
v 0.001548 -0.944009 0.527344
v 0.001580 -0.963540 0.364583
v 0.001599 -0.975259 0.186198
v 0.001605 -0.979165 -0.000000
v 0.001599 -0.975259 -0.186198
v 0.001579 -0.963540 -0.364583
v 0.001547 -0.944009 -0.527344
v -0.590251 0.000000 -0.999349
v -0.641276 0.000000 -0.994792
v -0.693278 0.000000 -0.982422
v -0.744792 0.000000 -0.958333
v -0.794352 0.000000 -0.918620
v -0.840495 0.000000 -0.859375
v -0.881755 0.000000 -0.776693
v -0.218831 -0.000081 1.000000
v -0.188150 -0.000651 1.000000
v -0.158444 -0.002197 1.000000
v -0.130200 -0.005208 1.000000
v -0.103906 -0.010173 1.000000
v -0.080049 -0.017578 1.000000
v -0.059118 -0.027913 1.000000
v 0.000277 -0.218831 -1.000000
v -0.000343 -0.188151 -1.000000
v -0.001938 -0.158447 -1.000000
v -0.004995 -0.130208 -1.000000
v -0.010002 -0.103922 -1.000000
v -0.017447 -0.080078 -1.000000
v -0.027817 -0.059163 -1.000000
v -0.041598 -0.041667 0.750000
v -0.041598 -0.041667 0.500000
v -0.041598 -0.041667 0.250000
v -0.041598 -0.041667 -0.000000
v -0.041598 -0.041667 -0.250000
v -0.041598 -0.041667 -0.500000
v -0.041598 -0.041667 -0.750000
v -0.281331 0.000000 -1.000000
v -0.313151 0.000000 -1.000000
v -0.345947 0.000000 -1.000000
v -0.380208 0.000000 -1.000000
v -0.416423 0.000000 -1.000000
v -0.455078 0.000000 -1.000000
v -0.496663 0.000000 -1.000000
v -0.881755 0.000000 0.776693
v -0.840495 0.000000 0.859375
v -0.794352 0.000000 0.918620
v -0.744792 0.000000 0.958333
v -0.693278 0.000000 0.982422
v -0.641276 0.000000 0.994792
v -0.590251 0.000000 0.999349
v -0.541667 0.000000 0.750000
v -0.541667 0.000000 0.500000
v -0.541667 0.000000 0.250000
v -0.541667 0.000000 -0.000000
v -0.541667 0.000000 -0.250000
v -0.541667 0.000000 -0.500000
v -0.541667 0.000000 -0.750000
v -0.496663 -0.000000 1.000000
v -0.455078 -0.000000 1.000000
v -0.416423 -0.000000 1.000000
v -0.380208 -0.000000 1.000000
v -0.345947 -0.000000 1.000000
v -0.313151 -0.000000 1.000000
v -0.281331 -0.000000 1.000000
v -0.059118 -0.027913 -1.000000
v -0.080049 -0.017578 -1.000000
v -0.103906 -0.010172 -1.000000
v -0.130200 -0.005208 -1.000000
v -0.158444 -0.002197 -1.000000
v -0.188150 -0.000651 -1.000000
v -0.218831 -0.000081 -1.000000
v -0.250000 -0.000000 0.750000
v -0.250000 -0.000000 0.500000
v -0.250000 -0.000000 0.250000
v -0.250000 -0.000000 -0.000000
v -0.250000 0.000000 -0.250000
v -0.250000 0.000000 -0.500000
v -0.250000 0.000000 -0.750000
v 0.000461 -0.281331 1.000000
v 0.000513 -0.313151 1.000000
v 0.000567 -0.345947 1.000000
v 0.000623 -0.380208 1.000000
v 0.000683 -0.416422 1.000000
v 0.000746 -0.455078 1.000000
v 0.000814 -0.496663 1.000000
v 0.001445 -0.881753 -0.776693
v 0.001378 -0.840494 -0.859375
v 0.001302 -0.794351 -0.918620
v 0.001221 -0.744791 -0.958334
v 0.001136 -0.693277 -0.982422
v 0.001051 -0.641275 -0.994792
v 0.000967 -0.590250 -0.999349
v 0.000888 -0.541666 0.750000
v 0.000888 -0.541666 0.500000
v 0.000888 -0.541666 0.250000
v 0.000888 -0.541666 -0.000000
v 0.000888 -0.541666 -0.250000
v 0.000888 -0.541666 -0.500000
v 0.000888 -0.541666 -0.750000
v 0.000814 -0.496663 -1.000000
v 0.000746 -0.455077 -1.000000
v 0.000682 -0.416422 -1.000000
v 0.000623 -0.380208 -1.000000
v 0.000567 -0.345947 -1.000000
v 0.000513 -0.313151 -1.000000
v 0.000461 -0.281331 -1.000000
v -0.027816 -0.059163 1.000000
v -0.017447 -0.080078 1.000000
v -0.010002 -0.103923 1.000000
v -0.004995 -0.130208 1.000000
v -0.001937 -0.158447 1.000000
v -0.000342 -0.188151 1.000000
v 0.000277 -0.218831 1.000000
v 0.000410 -0.250000 0.750000
v 0.000410 -0.250000 0.500000
v 0.000410 -0.250000 0.250000
v 0.000410 -0.250000 -0.000000
v 0.000410 -0.250000 -0.250000
v 0.000410 -0.250000 -0.500000
v 0.000410 -0.250000 -0.750000
v 0.000968 -0.590290 0.749512
v 0.001052 -0.641594 0.746094
v 0.001138 -0.694353 0.736816
v 0.001225 -0.747341 0.718750
v 0.001311 -0.799408 0.689263
v 0.001393 -0.849710 0.646918
v 0.001472 -0.897710 0.591498
v 0.000968 -0.590325 0.499674
v 0.001052 -0.641872 0.497396
v 0.001140 -0.695291 0.491211
v 0.001229 -0.749565 0.479167
v 0.001318 -0.803798 0.459744
v 0.001406 -0.857584 0.433160
v 0.001493 -0.910745 0.400499
v 0.000968 -0.590349 0.249837
v 0.001053 -0.642069 0.248698
v 0.001141 -0.695955 0.245605
v 0.001231 -0.751138 0.239583
v 0.001323 -0.806869 0.229953
v 0.001414 -0.862880 0.217231
v 0.001507 -0.919037 0.202284
v 0.000968 -0.590358 -0.000000
v 0.001053 -0.642143 -0.000000
v 0.001141 -0.696207 -0.000000
v 0.001232 -0.751735 -0.000000
v 0.001325 -0.808023 -0.000000
v 0.001418 -0.864799 -0.000000
v 0.001511 -0.921901 -0.000000
v 0.000968 -0.590349 -0.249837
v 0.001052 -0.642069 -0.248698
v 0.001141 -0.695955 -0.245606
v 0.001231 -0.751138 -0.239583
v 0.001323 -0.806869 -0.229953
v 0.001414 -0.862880 -0.217231
v 0.001506 -0.919036 -0.202284
v 0.000968 -0.590324 -0.499675
v 0.001052 -0.641872 -0.497396
v 0.001140 -0.695291 -0.491211
v 0.001229 -0.749565 -0.479167
v 0.001318 -0.803798 -0.459744
v 0.001406 -0.857584 -0.433160
v 0.001493 -0.910745 -0.400499
v 0.000968 -0.590290 -0.749512
v 0.001052 -0.641594 -0.746094
v 0.001138 -0.694353 -0.736817
v 0.001225 -0.747341 -0.718750
v 0.001310 -0.799408 -0.689263
v 0.001393 -0.849710 -0.646919
v 0.001471 -0.897710 -0.591499
v -0.218831 -0.000081 0.750000
v -0.188150 -0.000651 0.750000
v -0.158444 -0.002197 0.750000
v -0.130200 -0.005208 0.750000
v -0.103906 -0.010173 0.750000
v -0.080049 -0.017578 0.750000
v -0.059118 -0.027913 0.750000
v -0.218831 -0.000081 0.500000
v -0.188150 -0.000651 0.500000
v -0.158444 -0.002197 0.500000
v -0.130200 -0.005208 0.500000
v -0.103906 -0.010173 0.500000
v -0.080049 -0.017578 0.500000
v -0.059118 -0.027913 0.500000
v -0.218831 -0.000081 0.250000
v -0.188150 -0.000651 0.250000
v -0.158444 -0.002197 0.250000
v -0.130200 -0.005208 0.250000
v -0.103906 -0.010173 0.250000
v -0.080049 -0.017578 0.250000
v -0.059118 -0.027913 0.250000
v -0.218831 -0.000081 0.000000
v -0.188150 -0.000651 -0.000000
v -0.158444 -0.002197 0.000000
v -0.130200 -0.005208 -0.000000
v -0.103906 -0.010173 0.000000
v -0.080049 -0.017578 -0.000000
v -0.059118 -0.027913 0.000000
v -0.218831 -0.000081 -0.250000
v -0.188150 -0.000651 -0.250000
v -0.158444 -0.002197 -0.250000
v -0.130200 -0.005208 -0.250000
v -0.103906 -0.010172 -0.250000
v -0.080049 -0.017578 -0.250000
v -0.059118 -0.027913 -0.250000
v -0.218831 -0.000081 -0.500000
v -0.188150 -0.000651 -0.500000
v -0.158444 -0.002197 -0.500000
v -0.130200 -0.005208 -0.500000
v -0.103906 -0.010172 -0.500000
v -0.080049 -0.017578 -0.500000
v -0.059118 -0.027913 -0.500000
v -0.218831 -0.000081 -0.750000
v -0.188150 -0.000651 -0.750000
v -0.158444 -0.002197 -0.750000
v -0.130200 -0.005208 -0.750000
v -0.103906 -0.010172 -0.750000
v -0.080049 -0.017578 -0.750000
v -0.059118 -0.027913 -0.750000
v -0.897711 0.000000 0.591498
v -0.849711 0.000000 0.646918
v -0.799409 0.000000 0.689263
v -0.747342 0.000000 0.718750
v -0.694354 0.000000 0.736816
v -0.641595 0.000000 0.746094
v -0.590291 0.000000 0.749512
v -0.910746 0.000000 0.400499
v -0.857585 0.000000 0.433160
v -0.803799 0.000000 0.459744
v -0.749566 0.000000 0.479167
v -0.695292 0.000000 0.491211
v -0.641873 0.000000 0.497396
v -0.590325 0.000000 0.499675
v -0.919038 0.000000 0.202284
v -0.862881 0.000000 0.217231
v -0.806870 0.000000 0.229953
v -0.751139 0.000000 0.239583
v -0.695956 0.000000 0.245605
v -0.642070 0.000000 0.248698
v -0.590350 0.000000 0.249837
v -0.921902 0.000000 -0.000000
v -0.864800 0.000000 0.000000
v -0.808024 0.000000 -0.000000
v -0.751736 0.000000 -0.000000
v -0.696208 0.000000 0.000000
v -0.642144 0.000000 -0.000000
v -0.590359 0.000000 0.000000
v -0.919038 0.000000 -0.202284
v -0.862881 0.000000 -0.217231
v -0.806870 0.000000 -0.229953
v -0.751139 0.000000 -0.239583
v -0.695956 0.000000 -0.245605
v -0.642070 0.000000 -0.248698
v -0.590350 0.000000 -0.249837
v -0.910746 0.000000 -0.400499
v -0.857585 0.000000 -0.433160
v -0.803799 0.000000 -0.459744
v -0.749566 0.000000 -0.479167
v -0.695292 0.000000 -0.491211
v -0.641873 0.000000 -0.497396
v -0.590325 0.000000 -0.499675
v -0.897711 0.000000 -0.591498
v -0.849711 0.000000 -0.646918
v -0.799409 0.000000 -0.689263
v -0.747342 0.000000 -0.718750
v -0.694354 0.000000 -0.736816
v -0.641595 0.000000 -0.746094
v -0.590291 0.000000 -0.749512
v -0.496663 -0.000000 0.750000
v -0.455078 -0.000000 0.750000
v -0.416423 -0.000000 0.750000
v -0.380208 -0.000000 0.750000
v -0.345947 -0.000000 0.750000
v -0.313151 -0.000000 0.750000
v -0.281331 -0.000000 0.750000
v -0.496663 -0.000000 0.500000
v -0.455078 -0.000000 0.500000
v -0.416423 -0.000000 0.500000
v -0.380208 -0.000000 0.500000
v -0.345947 -0.000000 0.500000
v -0.313151 -0.000000 0.500000
v -0.281331 -0.000000 0.500000
v -0.496663 -0.000000 0.250000
v -0.455078 -0.000000 0.250000
v -0.416423 -0.000000 0.250000
v -0.380208 -0.000000 0.250000
v -0.345947 -0.000000 0.250000
v -0.313151 -0.000000 0.250000
v -0.281331 -0.000000 0.250000
v -0.496663 0.000000 0.000000
v -0.455078 0.000000 -0.000000
v -0.416423 0.000000 0.000000
v -0.380208 0.000000 -0.000000
v -0.345947 -0.000000 0.000000
v -0.313151 0.000000 -0.000000
v -0.281331 -0.000000 0.000000
v -0.496663 0.000000 -0.250000
v -0.455078 0.000000 -0.250000
v -0.416423 0.000000 -0.250000
v -0.380208 0.000000 -0.250000
v -0.345947 0.000000 -0.250000
v -0.313151 0.000000 -0.250000
v -0.281331 0.000000 -0.250000
v -0.496663 0.000000 -0.500000
v -0.455078 0.000000 -0.500000
v -0.416423 0.000000 -0.500000
v -0.380208 0.000000 -0.500000
v -0.345947 0.000000 -0.500000
v -0.313151 0.000000 -0.500000
v -0.281331 0.000000 -0.500000
v -0.496663 0.000000 -0.750000
v -0.455078 0.000000 -0.750000
v -0.416423 0.000000 -0.750000
v -0.380208 0.000000 -0.750000
v -0.345947 0.000000 -0.750000
v -0.313151 0.000000 -0.750000
v -0.281331 0.000000 -0.750000
v 0.000461 -0.281331 0.750000
v 0.000513 -0.313151 0.750000
v 0.000567 -0.345947 0.750000
v 0.000623 -0.380208 0.750000
v 0.000683 -0.416422 0.750000
v 0.000746 -0.455078 0.750000
v 0.000814 -0.496663 0.750000
v 0.000461 -0.281331 0.500000
v 0.000513 -0.313151 0.500000
v 0.000567 -0.345947 0.500000
v 0.000623 -0.380208 0.500000
v 0.000683 -0.416422 0.500000
v 0.000746 -0.455078 0.500000
v 0.000814 -0.496663 0.500000
v 0.000461 -0.281331 0.250000
v 0.000513 -0.313151 0.250000
v 0.000567 -0.345947 0.250000
v 0.000623 -0.380208 0.250000
v 0.000683 -0.416422 0.250000
v 0.000746 -0.455078 0.250000
v 0.000814 -0.496663 0.250000
v 0.000461 -0.281331 -0.000000
v 0.000513 -0.313151 -0.000000
v 0.000567 -0.345947 -0.000000
v 0.000623 -0.380208 -0.000000
v 0.000683 -0.416422 -0.000000
v 0.000746 -0.455078 -0.000000
v 0.000814 -0.496663 -0.000000
v 0.000461 -0.281331 -0.250000
v 0.000513 -0.313151 -0.250000
v 0.000567 -0.345947 -0.250000
v 0.000623 -0.380208 -0.250000
v 0.000683 -0.416422 -0.250000
v 0.000746 -0.455077 -0.250000
v 0.000814 -0.496663 -0.250000
v 0.000461 -0.281331 -0.500000
v 0.000513 -0.313151 -0.500000
v 0.000567 -0.345947 -0.500000
v 0.000623 -0.380208 -0.500000
v 0.000683 -0.416422 -0.500000
v 0.000746 -0.455077 -0.500000
v 0.000814 -0.496663 -0.500000
v 0.000461 -0.281331 -0.750000
v 0.000513 -0.313151 -0.750000
v 0.000567 -0.345947 -0.750000
v 0.000623 -0.380208 -0.750000
v 0.000683 -0.416422 -0.750000
v 0.000746 -0.455077 -0.750000
v 0.000814 -0.496663 -0.750000
v -0.027816 -0.059163 0.750000
v -0.017447 -0.080078 0.750000
v -0.010002 -0.103922 0.750000
v -0.004995 -0.130208 0.750000
v -0.001937 -0.158447 0.750000
v -0.000343 -0.188151 0.750000
v 0.000277 -0.218831 0.750000
v -0.027816 -0.059163 0.500000
v -0.017447 -0.080078 0.500000
v -0.010002 -0.103922 0.500000
v -0.004995 -0.130208 0.500000
v -0.001937 -0.158447 0.500000
v -0.000343 -0.188151 0.500000
v 0.000277 -0.218831 0.500000
v -0.027816 -0.059163 0.250000
v -0.017447 -0.080078 0.250000
v -0.010002 -0.103922 0.250000
v -0.004995 -0.130208 0.250000
v -0.001938 -0.158447 0.250000
v -0.000343 -0.188151 0.250000
v 0.000277 -0.218831 0.250000
v -0.027816 -0.059163 0.000000
v -0.017447 -0.080078 -0.000000
v -0.010002 -0.103922 0.000000
v -0.004995 -0.130208 -0.000000
v -0.001938 -0.158447 -0.000000
v -0.000343 -0.188151 -0.000000
v 0.000277 -0.218831 -0.000000
v -0.027816 -0.059163 -0.250000
v -0.017447 -0.080078 -0.250000
v -0.010002 -0.103922 -0.250000
v -0.004995 -0.130208 -0.250000
v -0.001938 -0.158447 -0.250000
v -0.000343 -0.188151 -0.250000
v 0.000277 -0.218831 -0.250000
v -0.027816 -0.059163 -0.500000
v -0.017447 -0.080078 -0.500000
v -0.010002 -0.103922 -0.500000
v -0.004995 -0.130208 -0.500000
v -0.001938 -0.158447 -0.500000
v -0.000343 -0.188151 -0.500000
v 0.000277 -0.218831 -0.500000
v -0.027817 -0.059163 -0.750000
v -0.017447 -0.080078 -0.750000
v -0.010002 -0.103922 -0.750000
v -0.004995 -0.130208 -0.750000
v -0.001938 -0.158447 -0.750000
v -0.000343 -0.188151 -0.750000
v 0.000277 -0.218831 -0.750000
vn 1.0000 0.0016 -0.0000
vn 0.0186 0.9998 -0.0000
vn 0.0520 0.9986 -0.0000
vn 0.1060 0.9944 -0.0000
vn 0.1855 0.9826 -0.0000
vn 0.2965 0.9550 -0.0000
vn 0.4427 0.8967 -0.0000
vn 0.0026 1.0000 -0.0000
vn 0.6175 0.7866 -0.0000
vn -0.0000 1.0000 -0.0000
vn 0.8959 0.4442 -0.0000
vn 0.9546 0.2980 -0.0000
vn 0.9823 0.1871 -0.0000
vn 0.9942 0.1076 -0.0000
vn 0.9986 0.0536 -0.0000
vn 0.9998 0.0202 -0.0000
vn 0.7856 0.6188 -0.0000
vn 1.0000 0.0043 -0.0000
s 0
f 149//1 155//1 148//1
f 150//1 156//1 149//1
f 151//1 157//1 150//1
f 152//1 158//1 151//1
f 153//1 159//1 152//1
f 154//1 160//1 153//1
f 156//1 162//1 155//1
f 157//1 163//1 156//1
f 158//1 164//1 157//1
f 159//1 165//1 158//1
f 160//1 166//1 159//1
f 161//1 167//1 160//1
f 163//1 169//1 162//1
f 164//1 170//1 163//1
f 165//1 171//1 164//1
f 166//1 172//1 165//1
f 167//1 173//1 166//1
f 168//1 174//1 167//1
f 169//1 177//1 176//1
f 170//1 178//1 177//1
f 171//1 179//1 178//1
f 172//1 180//1 179//1
f 173//1 181//1 180//1
f 174//1 182//1 181//1
f 176//1 184//1 183//1
f 177//1 185//1 184//1
f 178//1 186//1 185//1
f 179//1 187//1 186//1
f 180//1 188//1 187//1
f 181//1 189//1 188//1
f 183//1 191//1 190//1
f 184//1 192//1 191//1
f 185//1 193//1 192//1
f 186//1 194//1 193//1
f 187//1 195//1 194//1
f 188//1 196//1 195//1
f 22//1 120//1 11//1
f 23//1 148//1 22//1
f 24//1 149//1 23//1
f 25//1 150//1 24//1
f 26//1 151//1 25//1
f 27//1 152//1 26//1
f 28//1 153//1 27//1
f 2//1 154//1 28//1
f 29//1 161//1 154//1
f 30//1 168//1 161//1
f 31//1 175//1 168//1
f 175//1 33//1 182//1
f 182//1 34//1 189//1
f 189//1 35//1 196//1
f 196//1 4//1 113//1
f 195//1 113//1 114//1
f 194//1 114//1 115//1
f 193//1 115//1 116//1
f 192//1 116//1 117//1
f 191//1 117//1 118//1
f 190//1 118//1 119//1
f 126//1 119//1 12//1
f 125//1 190//1 126//1
f 124//1 183//1 125//1
f 123//1 176//1 124//1
f 162//1 123//1 122//1
f 155//1 122//1 121//1
f 148//1 121//1 120//1
f 198//2 204//2 197//2
f 199//3 205//3 198//3
f 200//4 206//4 199//4
f 200//5 208//5 207//5
f 202//6 208//6 201//6
f 202//7 210//7 209//7
f 204//2 212//2 211//2
f 206//3 212//3 205//3
f 206//4 214//4 213//4
f 208//5 214//5 207//5
f 208//6 216//6 215//6
f 210//7 216//7 209//7
f 211//2 219//2 218//2
f 213//3 219//3 212//3
f 213//4 221//4 220//4
f 215//5 221//5 214//5
f 215//6 223//6 222//6
f 217//7 223//7 216//7
f 219//2 225//2 218//2
f 219//3 227//3 226//3
f 221//4 227//4 220//4
f 222//5 228//5 221//5
f 223//6 229//6 222//6
f 223//7 231//7 230//7
f 225//2 233//2 232//2
f 226//3 234//3 233//3
f 228//4 234//4 227//4
f 228//5 236//5 235//5
f 230//6 236//6 229//6
f 230//7 238//7 237//7
f 233//2 239//2 232//2
f 233//3 241//3 240//3
f 235//4 241//4 234//4
f 235//5 243//5 242//5
f 237//6 243//6 236//6
f 238//7 244//7 237//7
f 43//8 99//8 9//8
f 44//2 197//2 43//2
f 44//3 199//3 198//3
f 46//4 199//4 45//4
f 47//5 200//5 46//5
f 48//6 201//6 47//6
f 48//7 203//7 202//7
f 49//9 57//9 203//9
f 203//9 58//9 210//9
f 210//9 59//9 217//9
f 217//9 60//9 224//9
f 224//9 61//9 231//9
f 231//9 62//9 238//9
f 238//9 63//9 245//9
f 245//9 6//9 92//9
f 245//7 93//7 244//7
f 244//6 94//6 243//6
f 242//5 94//5 95//5
f 242//4 96//4 241//4
f 240//3 96//3 97//3
f 240//2 98//2 239//2
f 105//8 98//8 10//8
f 232//8 105//8 104//8
f 225//8 104//8 103//8
f 218//8 103//8 102//8
f 211//8 102//8 101//8
f 204//8 101//8 100//8
f 197//8 100//8 99//8
f 246//10 254//10 253//10
f 247//10 255//10 254//10
f 248//10 256//10 255//10
f 249//10 257//10 256//10
f 250//10 258//10 257//10
f 251//10 259//10 258//10
f 253//10 261//10 260//10
f 254//10 262//10 261//10
f 255//10 263//10 262//10
f 256//10 264//10 263//10
f 257//10 265//10 264//10
f 258//10 266//10 265//10
f 260//10 268//10 267//10
f 261//10 269//10 268//10
f 262//10 270//10 269//10
f 263//10 271//10 270//10
f 264//10 272//10 271//10
f 265//10 273//10 272//10
f 268//10 274//10 267//10
f 269//10 275//10 268//10
f 270//10 276//10 269//10
f 271//10 277//10 270//10
f 272//10 278//10 271//10
f 273//10 279//10 272//10
f 275//10 281//10 274//10
f 276//10 282//10 275//10
f 277//10 283//10 276//10
f 278//10 284//10 277//10
f 279//10 285//10 278//10
f 280//10 286//10 279//10
f 282//10 288//10 281//10
f 283//10 289//10 282//10
f 284//10 290//10 283//10
f 285//10 291//10 284//10
f 286//10 292//10 285//10
f 287//10 293//10 286//10
f 1//10 246//10 21//10
f 71//10 247//10 246//10
f 72//10 248//10 247//10
f 73//10 249//10 248//10
f 74//10 250//10 249//10
f 75//10 251//10 250//10
f 76//10 252//10 251//10
f 77//10 78//10 252//10
f 252//10 79//10 259//10
f 259//10 80//10 266//10
f 266//10 81//10 273//10
f 81//10 280//10 273//10
f 82//10 287//10 280//10
f 83//10 294//10 287//10
f 84//10 36//10 294//10
f 294//10 37//10 293//10
f 293//10 38//10 292//10
f 292//10 39//10 291//10
f 291//10 40//10 290//10
f 290//10 41//10 289//10
f 289//10 42//10 288//10
f 288//10 3//10 15//10
f 281//10 15//10 16//10
f 274//10 16//10 17//10
f 267//10 17//10 18//10
f 19//10 267//10 18//10
f 20//10 260//10 19//10
f 21//10 253//10 20//10
f 295//10 303//10 302//10
f 296//10 304//10 303//10
f 298//10 304//10 297//10
f 299//10 305//10 298//10
f 300//10 306//10 299//10
f 301//10 307//10 300//10
f 302//10 310//10 309//10
f 304//10 310//10 303//10
f 304//10 312//10 311//10
f 306//10 312//10 305//10
f 306//10 314//10 313//10
f 308//10 314//10 307//10
f 309//10 317//10 316//10
f 311//10 317//10 310//10
f 311//10 319//10 318//10
f 313//10 319//10 312//10
f 313//10 321//10 320//10
f 315//10 321//10 314//10
f 317//10 323//10 316//10
f 318//10 324//10 317//10
f 319//10 325//10 318//10
f 320//10 326//10 319//10
f 320//10 328//10 327//10
f 321//10 329//10 328//10
f 324//10 330//10 323//10
f 324//10 332//10 331//10
f 326//10 332//10 325//10
f 326//10 334//10 333//10
f 328//10 334//10 327//10
f 328//10 336//10 335//10
f 331//10 337//10 330//10
f 331//10 339//10 338//10
f 333//10 339//10 332//10
f 333//10 341//10 340//10
f 335//10 341//10 334//10
f 336//10 342//10 335//10
f 85//10 78//10 8//10
f 86//10 295//10 85//10
f 87//10 296//10 86//10
f 88//10 297//10 87//10
f 89//10 298//10 88//10
f 89//10 300//10 299//10
f 91//10 300//10 90//10
f 9//10 301//10 91//10
f 99//10 308//10 301//10
f 308//10 101//10 315//10
f 315//10 102//10 322//10
f 322//10 103//10 329//10
f 103//10 336//10 329//10
f 104//10 343//10 336//10
f 343//10 10//10 64//10
f 343//10 65//10 342//10
f 342//10 66//10 341//10
f 340//10 66//10 67//10
f 340//10 68//10 339//10
f 338//10 68//10 69//10
f 338//10 70//10 337//10
f 84//10 70//10 7//10
f 330//10 84//10 83//10
f 323//10 83//10 82//10
f 316//10 82//10 81//10
f 309//10 81//10 80//10
f 302//10 80//10 79//10
f 78//10 302//10 79//10
f 345//1 351//1 344//1
f 345//1 353//1 352//1
f 347//1 353//1 346//1
f 348//1 354//1 347//1
f 349//1 355//1 348//1
f 349//1 357//1 356//1
f 351//1 359//1 358//1
f 352//1 360//1 359//1
f 353//1 361//1 360//1
f 355//1 361//1 354//1
f 355//1 363//1 362//1
f 357//1 363//1 356//1
f 359//1 365//1 358//1
f 360//1 366//1 359//1
f 360//1 368//1 367//1
f 362//1 368//1 361//1
f 362//1 370//1 369//1
f 364//1 370//1 363//1
f 365//1 373//1 372//1
f 367//1 373//1 366//1
f 368//1 374//1 367//1
f 369//1 375//1 368//1
f 370//1 376//1 369//1
f 370//1 378//1 377//1
f 373//1 379//1 372//1
f 374//1 380//1 373//1
f 374//1 382//1 381//1
f 376//1 382//1 375//1
f 376//1 384//1 383//1
f 378//1 384//1 377//1
f 380//1 386//1 379//1
f 381//1 387//1 380//1
f 382//1 388//1 381//1
f 383//1 389//1 382//1
f 383//1 391//1 390//1
f 384//1 392//1 391//1
f 14//1 344//1 141//1
f 107//1 344//1 106//1
f 107//1 346//1 345//1
f 109//1 346//1 108//1
f 110//1 347//1 109//1
f 110//1 349//1 348//1
f 111//1 350//1 349//1
f 112//1 120//1 350//1
f 120//1 357//1 350//1
f 357//1 122//1 364//1
f 364//1 123//1 371//1
f 371//1 124//1 378//1
f 378//1 125//1 385//1
f 125//1 392//1 385//1
f 126//1 127//1 392//1
f 392//1 128//1 391//1
f 391//1 129//1 390//1
f 390//1 130//1 389//1
f 389//1 131//1 388//1
f 388//1 132//1 387//1
f 387//1 133//1 386//1
f 147//1 133//1 13//1
f 146//1 386//1 147//1
f 372//1 146//1 145//1
f 144//1 372//1 145//1
f 358//1 144//1 143//1
f 351//1 143//1 142//1
f 344//1 142//1 141//1
f 394//11 400//11 393//11
f 395//12 401//12 394//12
f 396//13 402//13 395//13
f 397//14 403//14 396//14
f 398//15 404//15 397//15
f 398//16 406//16 405//16
f 400//11 408//11 407//11
f 402//12 408//12 401//12
f 402//13 410//13 409//13
f 404//14 410//14 403//14
f 405//15 411//15 404//15
f 406//16 412//16 405//16
f 407//11 415//11 414//11
f 409//12 415//12 408//12
f 409//13 417//13 416//13
f 411//14 417//14 410//14
f 412//15 418//15 411//15
f 413//16 419//16 412//16
f 415//11 421//11 414//11
f 416//12 422//12 415//12
f 416//13 424//13 423//13
f 418//14 424//14 417//14
f 419//15 425//15 418//15
f 419//16 427//16 426//16
f 422//11 428//11 421//11
f 422//12 430//12 429//12
f 424//13 430//13 423//13
f 424//14 432//14 431//14
f 426//15 432//15 425//15
f 426//16 434//16 433//16
f 429//11 435//11 428//11
f 429//12 437//12 436//12
f 431//13 437//13 430//13
f 431//14 439//14 438//14
f 433//15 439//15 432//15
f 433//16 441//16 440//16
f 5//17 393//17 57//17
f 135//11 393//11 134//11
f 136//12 394//12 135//12
f 136//13 396//13 395//13
f 138//14 396//14 137//14
f 139//15 397//15 138//15
f 139//16 399//16 398//16
f 140//18 141//18 399//18
f 141//18 406//18 399//18
f 406//18 143//18 413//18
f 413//18 144//18 420//18
f 144//18 427//18 420//18
f 145//18 434//18 427//18
f 146//18 441//18 434//18
f 147//18 50//18 441//18
f 440//16 50//16 51//16
f 440//15 52//15 439//15
f 438//14 52//14 53//14
f 438//13 54//13 437//13
f 436//12 54//12 55//12
f 436//11 56//11 435//11
f 63//17 56//17 6//17
f 62//17 435//17 63//17
f 61//17 428//17 62//17
f 60//17 421//17 61//17
f 407//17 60//17 59//17
f 400//17 59//17 58//17
f 57//17 400//17 58//17
f 149//1 156//1 155//1
f 150//1 157//1 156//1
f 151//1 158//1 157//1
f 152//1 159//1 158//1
f 153//1 160//1 159//1
f 154//1 161//1 160//1
f 156//1 163//1 162//1
f 157//1 164//1 163//1
f 158//1 165//1 164//1
f 159//1 166//1 165//1
f 160//1 167//1 166//1
f 161//1 168//1 167//1
f 163//1 170//1 169//1
f 164//1 171//1 170//1
f 165//1 172//1 171//1
f 166//1 173//1 172//1
f 167//1 174//1 173//1
f 168//1 175//1 174//1
f 169//1 170//1 177//1
f 170//1 171//1 178//1
f 171//1 172//1 179//1
f 172//1 173//1 180//1
f 173//1 174//1 181//1
f 174//1 175//1 182//1
f 176//1 177//1 184//1
f 177//1 178//1 185//1
f 178//1 179//1 186//1
f 179//1 180//1 187//1
f 180//1 181//1 188//1
f 181//1 182//1 189//1
f 183//1 184//1 191//1
f 184//1 185//1 192//1
f 185//1 186//1 193//1
f 186//1 187//1 194//1
f 187//1 188//1 195//1
f 188//1 189//1 196//1
f 22//1 148//1 120//1
f 23//1 149//1 148//1
f 24//1 150//1 149//1
f 25//1 151//1 150//1
f 26//1 152//1 151//1
f 27//1 153//1 152//1
f 28//1 154//1 153//1
f 2//1 29//1 154//1
f 29//1 30//1 161//1
f 30//1 31//1 168//1
f 31//1 32//1 175//1
f 175//1 32//1 33//1
f 182//1 33//1 34//1
f 189//1 34//1 35//1
f 196//1 35//1 4//1
f 195//1 196//1 113//1
f 194//1 195//1 114//1
f 193//1 194//1 115//1
f 192//1 193//1 116//1
f 191//1 192//1 117//1
f 190//1 191//1 118//1
f 126//1 190//1 119//1
f 125//1 183//1 190//1
f 124//1 176//1 183//1
f 123//1 169//1 176//1
f 162//1 169//1 123//1
f 155//1 162//1 122//1
f 148//1 155//1 121//1
f 198//2 205//2 204//2
f 199//3 206//3 205//3
f 200//4 207//4 206//4
f 200//5 201//5 208//5
f 202//6 209//6 208//6
f 202//7 203//7 210//7
f 204//2 205//2 212//2
f 206//3 213//3 212//3
f 206//4 207//4 214//4
f 208//5 215//5 214//5
f 208//6 209//6 216//6
f 210//7 217//7 216//7
f 211//2 212//2 219//2
f 213//3 220//3 219//3
f 213//4 214//4 221//4
f 215//5 222//5 221//5
f 215//6 216//6 223//6
f 217//7 224//7 223//7
f 219//2 226//2 225//2
f 219//3 220//3 227//3
f 221//4 228//4 227//4
f 222//5 229//5 228//5
f 223//6 230//6 229//6
f 223//7 224//7 231//7
f 225//2 226//2 233//2
f 226//3 227//3 234//3
f 228//4 235//4 234//4
f 228//5 229//5 236//5
f 230//6 237//6 236//6
f 230//7 231//7 238//7
f 233//2 240//2 239//2
f 233//3 234//3 241//3
f 235//4 242//4 241//4
f 235//5 236//5 243//5
f 237//6 244//6 243//6
f 238//7 245//7 244//7
f 43//8 197//8 99//8
f 44//2 198//2 197//2
f 44//3 45//3 199//3
f 46//4 200//4 199//4
f 47//5 201//5 200//5
f 48//6 202//6 201//6
f 48//7 49//7 203//7
f 49//9 5//9 57//9
f 203//9 57//9 58//9
f 210//9 58//9 59//9
f 217//9 59//9 60//9
f 224//9 60//9 61//9
f 231//9 61//9 62//9
f 238//9 62//9 63//9
f 245//9 63//9 6//9
f 245//7 92//7 93//7
f 244//6 93//6 94//6
f 242//5 243//5 94//5
f 242//4 95//4 96//4
f 240//3 241//3 96//3
f 240//2 97//2 98//2
f 105//8 239//8 98//8
f 232//8 239//8 105//8
f 225//8 232//8 104//8
f 218//8 225//8 103//8
f 211//8 218//8 102//8
f 204//8 211//8 101//8
f 197//8 204//8 100//8
f 246//10 247//10 254//10
f 247//10 248//10 255//10
f 248//10 249//10 256//10
f 249//10 250//10 257//10
f 250//10 251//10 258//10
f 251//10 252//10 259//10
f 253//10 254//10 261//10
f 254//10 255//10 262//10
f 255//10 256//10 263//10
f 256//10 257//10 264//10
f 257//10 258//10 265//10
f 258//10 259//10 266//10
f 260//10 261//10 268//10
f 261//10 262//10 269//10
f 262//10 263//10 270//10
f 263//10 264//10 271//10
f 264//10 265//10 272//10
f 265//10 266//10 273//10
f 268//10 275//10 274//10
f 269//10 276//10 275//10
f 270//10 277//10 276//10
f 271//10 278//10 277//10
f 272//10 279//10 278//10
f 273//10 280//10 279//10
f 275//10 282//10 281//10
f 276//10 283//10 282//10
f 277//10 284//10 283//10
f 278//10 285//10 284//10
f 279//10 286//10 285//10
f 280//10 287//10 286//10
f 282//10 289//10 288//10
f 283//10 290//10 289//10
f 284//10 291//10 290//10
f 285//10 292//10 291//10
f 286//10 293//10 292//10
f 287//10 294//10 293//10
f 1//10 71//10 246//10
f 71//10 72//10 247//10
f 72//10 73//10 248//10
f 73//10 74//10 249//10
f 74//10 75//10 250//10
f 75//10 76//10 251//10
f 76//10 77//10 252//10
f 77//10 8//10 78//10
f 252//10 78//10 79//10
f 259//10 79//10 80//10
f 266//10 80//10 81//10
f 81//10 82//10 280//10
f 82//10 83//10 287//10
f 83//10 84//10 294//10
f 84//10 7//10 36//10
f 294//10 36//10 37//10
f 293//10 37//10 38//10
f 292//10 38//10 39//10
f 291//10 39//10 40//10
f 290//10 40//10 41//10
f 289//10 41//10 42//10
f 288//10 42//10 3//10
f 281//10 288//10 15//10
f 274//10 281//10 16//10
f 267//10 274//10 17//10
f 19//10 260//10 267//10
f 20//10 253//10 260//10
f 21//10 246//10 253//10
f 295//10 296//10 303//10
f 296//10 297//10 304//10
f 298//10 305//10 304//10
f 299//10 306//10 305//10
f 300//10 307//10 306//10
f 301//10 308//10 307//10
f 302//10 303//10 310//10
f 304//10 311//10 310//10
f 304//10 305//10 312//10
f 306//10 313//10 312//10
f 306//10 307//10 314//10
f 308//10 315//10 314//10
f 309//10 310//10 317//10
f 311//10 318//10 317//10
f 311//10 312//10 319//10
f 313//10 320//10 319//10
f 313//10 314//10 321//10
f 315//10 322//10 321//10
f 317//10 324//10 323//10
f 318//10 325//10 324//10
f 319//10 326//10 325//10
f 320//10 327//10 326//10
f 320//10 321//10 328//10
f 321//10 322//10 329//10
f 324//10 331//10 330//10
f 324//10 325//10 332//10
f 326//10 333//10 332//10
f 326//10 327//10 334//10
f 328//10 335//10 334//10
f 328//10 329//10 336//10
f 331//10 338//10 337//10
f 331//10 332//10 339//10
f 333//10 340//10 339//10
f 333//10 334//10 341//10
f 335//10 342//10 341//10
f 336//10 343//10 342//10
f 85//10 295//10 78//10
f 86//10 296//10 295//10
f 87//10 297//10 296//10
f 88//10 298//10 297//10
f 89//10 299//10 298//10
f 89//10 90//10 300//10
f 91//10 301//10 300//10
f 9//10 99//10 301//10
f 99//10 100//10 308//10
f 308//10 100//10 101//10
f 315//10 101//10 102//10
f 322//10 102//10 103//10
f 103//10 104//10 336//10
f 104//10 105//10 343//10
f 343//10 105//10 10//10
f 343//10 64//10 65//10
f 342//10 65//10 66//10
f 340//10 341//10 66//10
f 340//10 67//10 68//10
f 338//10 339//10 68//10
f 338//10 69//10 70//10
f 84//10 337//10 70//10
f 330//10 337//10 84//10
f 323//10 330//10 83//10
f 316//10 323//10 82//10
f 309//10 316//10 81//10
f 302//10 309//10 80//10
f 78//10 295//10 302//10
f 345//1 352//1 351//1
f 345//1 346//1 353//1
f 347//1 354//1 353//1
f 348//1 355//1 354//1
f 349//1 356//1 355//1
f 349//1 350//1 357//1
f 351//1 352//1 359//1
f 352//1 353//1 360//1
f 353//1 354//1 361//1
f 355//1 362//1 361//1
f 355//1 356//1 363//1
f 357//1 364//1 363//1
f 359//1 366//1 365//1
f 360//1 367//1 366//1
f 360//1 361//1 368//1
f 362//1 369//1 368//1
f 362//1 363//1 370//1
f 364//1 371//1 370//1
f 365//1 366//1 373//1
f 367//1 374//1 373//1
f 368//1 375//1 374//1
f 369//1 376//1 375//1
f 370//1 377//1 376//1
f 370//1 371//1 378//1
f 373//1 380//1 379//1
f 374//1 381//1 380//1
f 374//1 375//1 382//1
f 376//1 383//1 382//1
f 376//1 377//1 384//1
f 378//1 385//1 384//1
f 380//1 387//1 386//1
f 381//1 388//1 387//1
f 382//1 389//1 388//1
f 383//1 390//1 389//1
f 383//1 384//1 391//1
f 384//1 385//1 392//1
f 14//1 106//1 344//1
f 107//1 345//1 344//1
f 107//1 108//1 346//1
f 109//1 347//1 346//1
f 110//1 348//1 347//1
f 110//1 111//1 349//1
f 111//1 112//1 350//1
f 112//1 11//1 120//1
f 120//1 121//1 357//1
f 357//1 121//1 122//1
f 364//1 122//1 123//1
f 371//1 123//1 124//1
f 378//1 124//1 125//1
f 125//1 126//1 392//1
f 126//1 12//1 127//1
f 392//1 127//1 128//1
f 391//1 128//1 129//1
f 390//1 129//1 130//1
f 389//1 130//1 131//1
f 388//1 131//1 132//1
f 387//1 132//1 133//1
f 147//1 386//1 133//1
f 146//1 379//1 386//1
f 372//1 379//1 146//1
f 144//1 365//1 372//1
f 358//1 365//1 144//1
f 351//1 358//1 143//1
f 344//1 351//1 142//1
f 394//11 401//11 400//11
f 395//12 402//12 401//12
f 396//13 403//13 402//13
f 397//14 404//14 403//14
f 398//15 405//15 404//15
f 398//16 399//16 406//16
f 400//11 401//11 408//11
f 402//12 409//12 408//12
f 402//13 403//13 410//13
f 404//14 411//14 410//14
f 405//15 412//15 411//15
f 406//16 413//16 412//16
f 407//11 408//11 415//11
f 409//12 416//12 415//12
f 409//13 410//13 417//13
f 411//14 418//14 417//14
f 412//15 419//15 418//15
f 413//16 420//16 419//16
f 415//11 422//11 421//11
f 416//12 423//12 422//12
f 416//13 417//13 424//13
f 418//14 425//14 424//14
f 419//15 426//15 425//15
f 419//16 420//16 427//16
f 422//11 429//11 428//11
f 422//12 423//12 430//12
f 424//13 431//13 430//13
f 424//14 425//14 432//14
f 426//15 433//15 432//15
f 426//16 427//16 434//16
f 429//11 436//11 435//11
f 429//12 430//12 437//12
f 431//13 438//13 437//13
f 431//14 432//14 439//14
f 433//15 440//15 439//15
f 433//16 434//16 441//16
f 5//17 134//17 393//17
f 135//11 394//11 393//11
f 136//12 395//12 394//12
f 136//13 137//13 396//13
f 138//14 397//14 396//14
f 139//15 398//15 397//15
f 139//16 140//16 399//16
f 140//18 14//18 141//18
f 141//18 142//18 406//18
f 406//18 142//18 143//18
f 413//18 143//18 144//18
f 144//18 145//18 427//18
f 145//18 146//18 434//18
f 146//18 147//18 441//18
f 147//18 13//18 50//18
f 440//16 441//16 50//16
f 440//15 51//15 52//15
f 438//14 439//14 52//14
f 438//13 53//13 54//13
f 436//12 437//12 54//12
f 436//11 55//11 56//11
f 63//17 435//17 56//17
f 62//17 428//17 435//17
f 61//17 421//17 428//17
f 60//17 414//17 421//17
f 407//17 414//17 60//17
f 400//17 407//17 59//17
f 57//17 393//17 400//17
