# Blender 4.4.1
# www.blender.org
o Cube
v -1.000142 -0.895554 0.738480
v -1.000142 -0.657761 1.000000
v -1.000142 -0.877453 0.838560
v -1.000142 -0.825906 0.923403
v -1.000142 -0.748760 0.980093
v -1.000142 -0.245030 1.000000
v -1.000142 -0.007236 0.738480
v -1.000142 -0.154030 0.980093
v -1.000142 -0.076884 0.923403
v -1.000142 -0.025337 0.838560
v -1.000142 -0.483370 -1.000000
v -1.000142 -0.895554 -0.866155
v -1.000142 -0.641106 -0.989812
v -1.000142 -0.774828 -0.960798
v -1.000142 -0.864179 -0.917375
v -1.000142 0.644231 -0.866155
v -1.000142 0.232046 -1.000000
v -1.000142 0.612855 -0.917375
v -1.000142 0.523505 -0.960798
v -1.000142 0.389782 -0.989812
v 1.000142 -0.657761 1.000000
v 1.000141 -0.895554 0.738480
v 1.000142 -0.748760 0.980093
v 1.000142 -0.825906 0.923403
v 1.000142 -0.877453 0.838560
v 1.000142 -0.007236 0.738480
v 1.000142 -0.245030 1.000000
v 1.000142 -0.025337 0.838560
v 1.000142 -0.076884 0.923403
v 1.000142 -0.154030 0.980093
v 1.000142 -0.895554 -0.866155
v 1.000142 -0.483370 -1.000000
v 1.000142 -0.864179 -0.917375
v 1.000142 -0.774828 -0.960798
v 1.000142 -0.641106 -0.989812
v 1.000142 0.644231 -0.866155
v 1.000142 0.232046 -1.000000
v 1.000142 0.612855 -0.917375
v 1.000142 0.389782 -0.989812
v 1.000141 0.523505 -0.960798
v -1.000142 -0.895554 0.000000
v -1.000142 0.326910 0.006170
v -1.000142 0.449055 -0.129289
v -1.000142 0.373653 -0.006033
v -1.000142 0.413279 -0.036061
v -1.000142 0.439757 -0.079343
v 1.000142 -0.895554 0.000000
v 1.000142 0.449055 -0.129289
v 1.000142 0.326910 0.006170
v 1.000142 0.439757 -0.079343
v 1.000142 0.413279 -0.036061
v 1.000142 0.373653 -0.006033
v -1.000142 -0.895554 0.023049
v 1.000142 0.114909 0.016879
v 1.000141 -0.007236 0.284569
v 1.000142 0.068166 0.039147
v 1.000142 0.028540 0.097839
v 1.000142 0.002062 0.184020
v -1.000142 0.114909 0.016879
v -1.000142 -0.007236 0.284569
v -1.000142 0.068166 0.039147
v -1.000142 0.002062 0.184020
v -1.000142 0.028540 0.097839
v 1.000142 -0.895554 0.023049
v -1.000142 0.591984 -0.495444
v -1.000142 0.644231 -0.633845
v -1.000142 0.611978 -0.507376
v -1.000142 0.628928 -0.537868
v -1.000142 0.640254 -0.582278
v 1.000142 -0.895554 -0.500000
v -1.000142 -0.895554 -0.500000
v 1.000142 0.644231 -0.633845
v 1.000142 0.591984 -0.495444
v 1.000142 0.640254 -0.582278
v 1.000142 0.628928 -0.537868
v 1.000142 0.611978 -0.507376
v -1.000142 -0.895554 -0.482981
v 1.000142 0.449055 -0.353692
v 1.000142 0.501301 -0.487536
v 1.000142 0.453032 -0.403515
v 1.000142 0.481307 -0.475951
v 1.000142 0.464357 -0.446447
v -1.000142 0.501301 -0.487536
v -1.000142 0.449055 -0.353692
v -1.000142 0.481307 -0.475951
v -1.000142 0.453032 -0.403515
v -1.000142 0.464357 -0.446447
v 1.000142 -0.895554 -0.482981
s 0
f 16 72 36
f 31 71 12
f 53 22 1
f 55 7 26
f 17 32 11
f 47 53 41
f 65 79 73
f 88 41 77
f 27 2 21
f 84 48 78
f 42 54 49
f 70 77 71
f 12 33 31
f 15 34 33
f 14 35 34
f 13 32 35
f 36 18 16
f 18 40 19
f 40 20 19
f 39 17 20
f 22 3 1
f 25 4 3
f 24 5 4
f 23 2 5
f 7 28 26
f 10 29 28
f 9 30 29
f 8 27 30
f 49 44 42
f 52 45 44
f 51 46 45
f 50 43 46
f 55 62 60
f 58 63 62
f 57 61 63
f 56 59 61
f 73 67 65
f 76 68 67
f 68 74 69
f 69 72 66
f 78 86 84
f 80 87 86
f 87 81 85
f 85 79 83
f 86 11 59
f 54 80 78
f 16 66 72
f 31 70 71
f 53 64 22
f 55 60 7
f 17 37 32
f 47 64 53
f 65 83 79
f 88 47 41
f 27 6 2
f 84 43 48
f 42 59 54
f 70 88 77
f 12 15 33
f 15 14 34
f 14 13 35
f 13 11 32
f 36 38 18
f 18 38 40
f 40 39 20
f 39 37 17
f 22 25 3
f 25 24 4
f 24 23 5
f 23 21 2
f 7 10 28
f 10 9 29
f 9 8 30
f 8 6 27
f 49 52 44
f 52 51 45
f 51 50 46
f 50 48 43
f 55 58 62
f 58 57 63
f 57 56 61
f 56 54 59
f 73 76 67
f 76 75 68
f 68 75 74
f 69 74 72
f 78 80 86
f 80 82 87
f 87 82 81
f 85 81 79
f 53 1 60
f 1 3 2
f 2 3 4
f 4 5 2
f 2 6 7
f 6 8 9
f 9 10 6
f 10 7 6
f 7 60 1
f 2 7 1
f 41 53 62
f 60 62 53
f 77 41 61
f 15 12 14
f 12 71 14
f 14 71 13
f 71 77 11
f 41 62 63
f 61 41 63
f 77 61 11
f 13 71 11
f 17 11 86
f 17 87 85
f 19 20 66
f 20 17 85
f 66 83 69
f 16 18 19
f 66 16 19
f 67 68 65
f 68 69 83
f 83 65 68
f 83 66 20
f 87 17 86
f 20 85 83
f 61 59 11
f 59 42 43
f 42 44 45
f 59 43 84
f 45 46 42
f 46 43 42
f 86 59 84
f 27 21 22
f 21 23 24
f 25 21 24
f 25 22 21
f 22 64 55
f 22 55 26
f 64 47 58
f 55 64 58
f 29 30 27
f 26 28 27
f 28 29 27
f 26 27 22
f 47 88 56
f 58 47 57
f 70 31 34
f 31 33 34
f 70 34 35
f 88 70 32
f 57 47 56
f 35 32 70
f 32 37 80
f 56 32 54
f 37 39 81
f 39 40 72
f 37 82 80
f 40 38 36
f 36 72 40
f 72 74 79
f 74 75 79
f 75 76 73
f 79 75 73
f 32 56 88
f 82 37 81
f 54 32 80
f 72 79 39
f 79 81 39
f 52 49 51
f 49 54 48
f 48 54 78
f 50 51 49
f 48 50 49
