# Blender 4.4.1
# www.blender.org
o Cube
v 0.500000 0.475873 -0.379067
v 0.500000 0.475873 0.386979
v 0.500000 -0.003019 -0.428571
v 0.500000 -0.003019 -0.406609
v 0.500000 -0.003019 0.414521
v 0.500000 -0.003019 0.428571
v 0.500000 -0.003019 -0.379067
v 0.500000 -0.003019 0.386979
v -0.500000 -0.003019 -0.428571
v -0.500000 -0.003019 -0.406609
v -0.500000 -0.003019 0.414521
v -0.500000 -0.003019 0.428571
v -0.500000 -0.003019 -0.379067
v -0.500000 -0.003019 0.386979
v -0.500000 0.475873 -0.379067
v -0.500000 0.475873 0.386979
v -0.873650 0.172704 1.000000
v -0.873650 -0.003019 0.855600
v -0.873650 0.085928 0.978285
v -0.873650 0.022639 0.925964
v -0.873650 0.516637 1.000000
v -0.873650 0.692360 0.855600
v -0.873650 0.603413 0.978285
v -0.873650 0.666702 0.925964
v -0.873650 0.172704 -1.000000
v -0.873650 -0.003019 -0.855600
v -0.873650 0.085928 -0.978285
v -0.873650 0.022639 -0.925964
v -0.873650 0.516637 -1.000000
v -0.873650 0.692360 -0.855600
v -0.873650 0.603413 -0.978285
v -0.873650 0.666702 -0.925964
v 0.873650 0.172704 1.000000
v 0.873650 -0.003019 0.855600
v 0.873650 0.085928 0.978285
v 0.873650 0.022639 0.925964
v 0.873650 0.516637 1.000000
v 0.873650 0.692360 0.855600
v 0.873650 0.603413 0.978285
v 0.873650 0.666702 0.925964
v 0.873650 0.172704 -1.000000
v 0.873650 -0.003019 -0.855600
v 0.873650 0.085928 -0.978285
v 0.873650 0.022639 -0.925964
v 0.873650 0.692360 -0.855600
v 0.873650 0.516637 -1.000000
v 0.873650 0.666702 -0.925964
v 0.873650 0.603413 -0.978285
v -0.873650 -0.003019 -0.428571
v -0.873650 -0.003019 -0.406609
v -0.873650 -0.003019 0.414521
v -0.873650 -0.003019 0.428571
v -0.873650 0.692360 0.572972
v -0.873650 0.637654 0.425021
v -0.873650 0.683925 0.500292
v -0.873650 0.663579 0.446497
v -0.873650 0.530579 0.418072
v -0.873650 0.475873 0.407561
v -0.873650 0.503203 0.415218
v -0.873650 0.483185 0.411299
v -0.873650 0.475873 -0.399649
v -0.873650 0.530579 -0.412159
v -0.873650 0.483195 -0.403656
v -0.873650 0.503210 -0.408305
v -0.873650 0.637654 -0.423021
v -0.873650 0.692360 -0.572972
v -0.873650 0.663606 -0.445495
v -0.873650 0.683937 -0.500035
v 0.873650 -0.003019 0.428571
v 0.873650 -0.003019 0.414521
v 0.873650 -0.003019 -0.406609
v 0.873650 -0.003019 -0.428571
v 0.873650 0.692360 -0.572972
v 0.873650 0.637654 -0.423021
v 0.873650 0.683937 -0.500035
v 0.873650 0.663606 -0.445495
v 0.873650 0.530579 -0.412159
v 0.873650 0.475873 -0.399649
v 0.873650 0.503210 -0.408305
v 0.873650 0.483195 -0.403656
v 0.873650 0.475873 0.407561
v 0.873650 0.530579 0.418072
v 0.873650 0.483185 0.411299
v 0.873650 0.503203 0.415218
v 0.873650 0.637654 0.425021
v 0.873650 0.692360 0.572972
v 0.873650 0.663579 0.446497
v 0.873650 0.683925 0.500292
v -0.873650 -0.003019 -0.379067
v -0.873650 -0.003019 0.386979
v -0.873650 0.475873 0.386979
v -0.873650 0.475873 -0.379067
v 0.873650 -0.003019 0.386979
v 0.873650 -0.003019 -0.379067
v 0.873650 0.475873 -0.379067
v 0.873650 0.475873 0.386979
v 0.500000 0.516637 -1.000000
v 0.500000 0.692360 -0.855600
v 0.500000 0.604499 -0.980654
v 0.500000 0.668818 -0.927800
v 0.500000 0.172704 1.000000
v 0.500000 -0.003019 0.855600
v 0.500000 0.084842 0.980654
v 0.500000 0.020523 0.927800
v 0.500000 0.692360 -0.572972
v 0.500000 0.637654 -0.423021
v 0.500000 0.685031 -0.500028
v 0.500000 0.665007 -0.445142
v 0.500000 0.530579 -0.412159
v 0.500000 0.475873 -0.399649
v 0.500000 0.503226 -0.408451
v 0.500000 0.483202 -0.403872
v 0.500000 0.475873 0.407561
v 0.500000 0.530579 0.418072
v 0.500000 0.483202 0.411517
v 0.500000 0.503226 0.415364
v 0.500000 0.637654 0.425021
v 0.500000 0.692360 0.572972
v 0.500000 0.665007 0.446142
v 0.500000 0.685031 0.500296
v 0.500000 -0.003019 -0.855600
v 0.500000 0.172704 -1.000000
v 0.500000 0.020523 -0.927800
v 0.500000 0.084842 -0.980654
v 0.500000 0.692360 0.855600
v 0.500000 0.516637 1.000000
v 0.500000 0.668818 0.927800
v 0.500000 0.604499 0.980654
v -0.500000 0.172704 -1.000000
v -0.500000 -0.003019 -0.855600
v -0.500000 0.084842 -0.980654
v -0.500000 0.020523 -0.927800
v -0.500000 0.516637 1.000000
v -0.500000 0.692360 0.855600
v -0.500000 0.604499 0.980654
v -0.500000 0.668818 0.927800
v -0.500000 0.516637 -1.000000
v -0.500000 0.692360 -0.855600
v -0.500000 0.604499 -0.980654
v -0.500000 0.668818 -0.927800
v -0.500000 0.172704 1.000000
v -0.500000 -0.003019 0.855600
v -0.500000 0.084842 0.980654
v -0.500000 0.020523 0.927800
v -0.500000 0.692360 -0.572972
v -0.500000 0.637654 -0.423021
v -0.500000 0.685031 -0.500028
v -0.500000 0.665007 -0.445142
v -0.500000 0.530579 -0.412159
v -0.500000 0.475873 -0.399649
v -0.500000 0.503226 -0.408451
v -0.500000 0.483202 -0.403872
v -0.500000 0.475873 0.407561
v -0.500000 0.530579 0.418072
v -0.500000 0.483202 0.411517
v -0.500000 0.503226 0.415364
v -0.500000 0.637654 0.425021
v -0.500000 0.692360 0.572972
v -0.500000 0.665007 0.446142
v -0.500000 0.685031 0.500296
s 0
f 25 137 129
f 98 73 45
f 52 142 18
f 86 125 38
f 61 15 150
f 91 153 16
f 72 121 42
f 106 77 74
f 71 7 4
f 66 138 30
f 8 70 5
f 70 6 5
f 11 52 51
f 14 51 90
f 10 89 50
f 57 157 154
f 92 16 15
f 72 4 3
f 1 96 95
f 146 62 149
f 94 8 7
f 9 50 49
f 16 1 15
f 153 2 16
f 8 13 7
f 7 10 4
f 6 11 5
f 5 14 8
f 4 9 3
f 134 118 158
f 157 114 154
f 15 110 150
f 149 106 146
f 102 12 6
f 133 101 126
f 9 121 3
f 69 102 6
f 97 41 122
f 110 95 78
f 82 117 85
f 13 90 89
f 2 81 96
f 105 138 145
f 130 49 26
f 53 134 158
f 33 126 101
f 97 129 137
f 130 28 132
f 132 27 131
f 27 129 131
f 98 47 100
f 100 48 99
f 48 97 99
f 102 36 104
f 104 35 103
f 35 101 103
f 134 24 136
f 136 23 135
f 23 133 135
f 106 76 108
f 108 75 107
f 107 73 105
f 110 80 112
f 112 79 111
f 111 77 109
f 82 116 114
f 84 115 116
f 83 113 115
f 86 120 118
f 88 119 120
f 87 117 119
f 98 140 138
f 100 139 140
f 99 137 139
f 102 144 142
f 104 143 144
f 103 141 143
f 106 148 146
f 108 147 148
f 107 145 147
f 110 152 150
f 112 151 152
f 111 149 151
f 114 156 154
f 116 155 156
f 115 153 155
f 118 160 158
f 120 159 160
f 119 157 159
f 121 44 42
f 123 43 44
f 43 122 41
f 125 40 38
f 127 39 40
f 39 126 37
f 130 123 121
f 132 124 123
f 131 122 124
f 134 127 125
f 136 128 127
f 135 126 128
f 138 32 30
f 140 31 32
f 31 137 29
f 142 20 18
f 144 19 20
f 19 141 17
f 146 67 65
f 148 68 67
f 147 66 68
f 150 63 61
f 152 64 63
f 151 62 64
f 57 156 59
f 59 155 60
f 60 153 58
f 53 160 55
f 55 159 56
f 56 157 54
f 133 17 141
f 41 80 78
f 64 62 66
f 25 29 137
f 98 105 73
f 52 12 142
f 86 118 125
f 61 92 15
f 91 58 153
f 72 3 121
f 106 109 77
f 71 94 7
f 66 145 138
f 8 93 70
f 70 69 6
f 11 12 52
f 14 11 51
f 10 13 89
f 57 54 157
f 92 91 16
f 72 71 4
f 1 2 96
f 146 65 62
f 94 93 8
f 9 10 50
f 16 2 1
f 153 113 2
f 8 14 13
f 7 13 10
f 6 12 11
f 5 11 14
f 4 10 9
f 134 125 118
f 157 117 114
f 15 1 110
f 149 109 106
f 102 142 12
f 133 141 101
f 9 130 121
f 69 34 102
f 97 46 41
f 110 1 95
f 82 114 117
f 13 14 90
f 2 113 81
f 105 98 138
f 130 9 49
f 53 22 134
f 33 37 126
f 97 122 129
f 130 26 28
f 132 28 27
f 27 25 129
f 98 45 47
f 100 47 48
f 48 46 97
f 102 34 36
f 104 36 35
f 35 33 101
f 134 22 24
f 136 24 23
f 23 21 133
f 106 74 76
f 108 76 75
f 107 75 73
f 110 78 80
f 112 80 79
f 111 79 77
f 82 84 116
f 84 83 115
f 83 81 113
f 86 88 120
f 88 87 119
f 87 85 117
f 98 100 140
f 100 99 139
f 99 97 137
f 102 104 144
f 104 103 143
f 103 101 141
f 106 108 148
f 108 107 147
f 107 105 145
f 110 112 152
f 112 111 151
f 111 109 149
f 114 116 156
f 116 115 155
f 115 113 153
f 118 120 160
f 120 119 159
f 119 117 157
f 121 123 44
f 123 124 43
f 43 124 122
f 125 127 40
f 127 128 39
f 39 128 126
f 130 132 123
f 132 131 124
f 131 129 122
f 134 136 127
f 136 135 128
f 135 133 126
f 138 140 32
f 140 139 31
f 31 139 137
f 142 144 20
f 144 143 19
f 19 143 141
f 146 148 67
f 148 147 68
f 147 145 66
f 150 152 63
f 152 151 64
f 151 149 62
f 57 154 156
f 59 156 155
f 60 155 153
f 53 158 160
f 55 160 159
f 56 159 157
f 133 21 17
f 37 33 83
f 33 35 34
f 81 34 69
f 35 36 34
f 33 34 81
f 39 37 38
f 38 40 39
f 88 86 82
f 86 38 37
f 82 86 84
f 85 87 88
f 82 85 88
f 33 81 83
f 69 70 81
f 84 86 83
f 83 86 37
f 70 93 81
f 93 94 96
f 81 93 96
f 94 71 78
f 72 42 78
f 42 44 43
f 71 72 78
f 96 94 95
f 42 43 41
f 41 46 80
f 80 46 73
f 46 48 45
f 48 47 45
f 45 73 46
f 73 75 77
f 75 76 74
f 77 75 74
f 77 79 73
f 80 73 79
f 95 94 78
f 78 42 41
f 20 19 18
f 19 17 18
f 17 21 60
f 21 23 22
f 60 53 59
f 23 24 22
f 22 53 21
f 53 55 57
f 21 53 60
f 55 56 54
f 55 54 57
f 52 18 58
f 51 52 58
f 18 17 58
f 58 17 60
f 57 59 53
f 90 51 58
f 90 58 91
f 89 90 91
f 89 91 92
f 50 89 61
f 89 92 61
f 28 26 27
f 26 49 61
f 27 26 25
f 49 50 61
f 61 63 25
f 26 61 25
f 25 63 29
f 29 63 66
f 32 31 30
f 31 29 30
f 66 30 29
f 67 68 65
f 68 66 62
f 62 65 68
f 63 64 66
