# Blender 4.5.2 LTS
# www.blender.org
o Circle
v -0.401293 0.000000 -0.498978
v -1.196083 0.000000 -0.188939
v 0.062352 0.000000 -0.199984
v -0.106853 0.000000 0.097685
v 0.877898 0.000000 1.096003
v 0.866025 0.000000 -0.500000
v -0.401293 1.997675 -0.498978
v -1.196083 1.997675 -0.188939
v 0.062352 1.997675 -0.199984
v -0.106853 1.997675 0.097685
v 0.877898 1.997675 1.096003
v 0.866025 1.997675 -0.500000
s 0
f 6 1 7
f 4 5 11
f 2 3 9
f 5 6 12
f 3 4 10
f 1 2 8
f 9 12 7
f 3 6 5
f 6 7 12
f 4 11 10
f 2 9 8
f 5 12 11
f 3 10 9
f 1 8 7
f 9 7 8
f 12 9 11
f 11 9 10
f 1 3 2
f 3 5 4
f 6 3 1
