####
#
# OBJ File Generated by Meshlab
#
####
# Object sphere.obj
#
# Vertices: 52
# Faces: 100
#
####
mtllib ./sphere.obj.mtl

vn 0.880183 -0.136452 0.454597
v 0.877256 -0.199400 0.494259
vn 0.321077 -0.260348 -0.910565
v 0.197828 -0.277660 -0.958190
vn 0.776343 0.479568 0.409029
v 0.809466 0.495605 0.403260
vn -0.116888 0.920025 -0.374020
v -0.041215 0.983887 -0.337470
vn -0.246695 0.968572 0.031792
v -0.250960 0.996605 0.006687
vn -0.684105 -0.622602 -0.379956
v -0.676328 -0.625940 -0.411883
vn 0.805318 0.419336 -0.419071
v 0.832624 0.470757 -0.319500
vn 0.029976 0.036401 -0.998888
v 0.088981 0.112143 -0.997078
vn -0.955056 -0.104236 -0.277494
v -0.993689 -0.096538 -0.243678
vn -0.083252 -0.910317 0.405453
v -0.147352 -0.899970 0.449293
vn -0.248733 0.301243 -0.920535
v -0.261475 0.327927 -0.950246
vn 0.281733 -0.751949 -0.595986
v 0.331763 -0.731917 -0.633217
vn 0.882454 0.470394 -0.002229
v 0.907488 0.483943 0.025132
vn -0.806102 -0.589970 0.046209
v -0.823882 -0.599990 0.091325
vn -0.829943 0.334694 0.446290
v -0.830507 0.375942 0.445626
vn 0.441449 -0.683808 0.580973
v 0.435303 -0.717198 0.571639
vn -0.033060 -0.564631 0.824681
v -0.000938 -0.543103 0.865835
vn -0.601872 0.761147 0.241674
v -0.608117 0.795585 0.211967
vn -0.228283 -0.793894 -0.563577
v -0.161293 -0.835341 -0.567182
vn -0.379290 -0.070234 -0.922608
v -0.412810 -0.066432 -0.923738
vn 0.403281 0.675716 0.617067
v 0.382725 0.677829 0.672831
vn -0.512925 0.577972 -0.634710
v -0.603016 0.552041 -0.603624
vn -0.146218 -0.008033 0.989220
v -0.125450 -0.004774 1.024971
vn 0.417763 0.322732 -0.849304
v 0.513492 0.299504 -0.848946
vn 0.682260 -0.558470 -0.471839
v 0.698486 -0.571545 -0.501010
vn -0.725476 0.614756 -0.309451
v -0.734390 0.632800 -0.337657
vn 0.986231 0.064532 -0.152262
v 1.007907 -0.009016 -0.177091
vn 0.856765 0.466656 -0.219511
v 0.842566 0.473191 -0.281098
vn 0.831937 -0.537367 0.138269
v 0.820938 -0.575426 0.211277
vn -0.935677 0.347808 0.059491
v -0.939685 0.387783 0.048199
vn -0.789557 -0.070061 0.609665
v -0.808658 -0.092217 0.603725
vn -0.913841 -0.221248 0.340506
v -0.951973 -0.246227 0.291763
vn 0.767523 -0.038290 -0.639877
v 0.749603 0.018451 -0.701107
vn -0.394461 0.544849 0.739959
v -0.402410 0.565012 0.780185
vn 0.628221 0.215876 0.747486
v 0.653156 0.219388 0.745950
vn -0.517055 -0.696580 0.497423
v -0.485083 -0.732898 0.517695
vn 0.424544 -0.903532 0.058236
v 0.428829 -0.929153 0.134853
vn 0.015511 -0.990725 -0.134992
v 0.017708 -1.020154 -0.128057
vn -0.602745 0.129055 0.787428
v -0.634683 0.216377 0.756626
vn 0.426359 -0.213798 0.878925
v 0.459110 -0.282172 0.872526
vn 0.931916 0.298020 -0.206679
v 0.894685 0.476324 -0.044388
vn 0.508177 0.772933 -0.379909
v 0.435351 0.843712 -0.405920
vn -0.455354 -0.888960 -0.049018
v -0.484964 -0.889186 -0.092215
vn -0.119276 -0.402798 -0.907484
v -0.124808 -0.405630 -0.919866
vn 0.184645 0.404855 0.895544
v 0.214581 0.449647 0.904415
vn -0.068824 0.860656 0.504513
v -0.055722 0.881718 0.493676
vn -0.024177 0.632710 -0.774012
v -0.085947 0.549320 -0.864284
vn 0.909643 -0.311189 -0.275158
v 0.928048 -0.292607 -0.266854
vn -0.529294 -0.339715 0.777458
v -0.483262 -0.385953 0.802323
vn -0.600448 -0.383036 -0.701958
v -0.600182 -0.402389 -0.730059
vn -0.747813 0.144028 -0.648098
v -0.772779 0.123350 -0.632805
vn 0.369117 0.916988 0.151279
v 0.356017 0.940863 0.160740
# 52 vertices, 0 vertices normals


usemtl material_0
vt 0.657715 0.740234
vt 0.657227 0.739258
vt 0.657715 0.739258
f 52/1/52 21/2/21 3/3/3
vt 0.222168 0.315430
vt 0.222656 0.314453
vt 0.223145 0.315430
f 30/4/30 32/5/32 15/6/15
vt 0.879028 0.425049
vt 0.879517 0.425049
vt 0.879150 0.425293
f 14/7/14 36/8/36 32/9/32
vt 0.698242 0.648682
vt 0.698303 0.648804
vt 0.698181 0.648804
f 40/10/40 17/11/17 16/12/16
vt 0.288513 0.344604
vt 0.288422 0.344543
vt 0.288544 0.344543
f 11/13/11 24/14/24 8/15/8
vt 0.945923 0.261230
vt 0.946045 0.261475
vt 0.945923 0.261475
f 2/16/2 12/17/12 44/18/44
vt 0.911865 0.528320
vt 0.911621 0.528564
vt 0.911865 0.528076
f 19/19/19 12/20/12 38/21/38
vt 0.672119 0.548340
vt 0.671997 0.549072
vt 0.671997 0.548096
f 46/22/46 34/23/34 45/24/45
vt 0.825928 0.391357
vt 0.825989 0.391235
vt 0.826111 0.391235
f 21/25/21 45/26/45 35/27/35
vt 0.319580 0.766113
vt 0.319153 0.765991
vt 0.319641 0.765991
f 34/28/34 15/29/15 39/30/39
vt 0.168945 0.199707
vt 0.168823 0.199463
vt 0.169067 0.199463
f 24/31/24 7/32/7 33/33/33
vt 0.537842 0.891113
vt 0.536926 0.890991
vt 0.537903 0.890991
f 43/34/43 36/35/36 14/36/14
vt 0.036804 0.290039
vt 0.036682 0.289795
vt 0.036743 0.289795
f 43/37/43 10/38/10 36/39/36
vt 0.805847 0.398682
vt 0.805847 0.398560
vt 0.805908 0.398560
f 36/40/36 49/41/49 32/42/32
vt 0.968262 0.477661
vt 0.968140 0.478027
vt 0.968140 0.477905
f 30/43/30 9/44/9 32/45/32
vt 0.745605 0.631836
vt 0.745605 0.630859
vt 0.746094 0.631836
f 43/46/43 6/47/6 19/48/19
vt 0.754883 0.246094
vt 0.754395 0.245117
vt 0.755371 0.245117
f 36/49/36 17/50/17 49/51/49
vt 0.957153 0.946777
vt 0.955200 0.946777
vt 0.955811 0.946289
f 25/52/25 2/53/2 33/54/33
vt 0.857605 0.378540
vt 0.857727 0.378540
vt 0.857666 0.378662
f 41/55/41 27/56/27 28/57/28
vt 0.857971 0.378296
vt 0.858093 0.378296
vt 0.858032 0.378418
f 41/58/41 13/59/13 27/60/27
vt 0.214722 0.850830
vt 0.214478 0.850830
vt 0.214600 0.850586
f 13/61/13 42/62/42 52/63/52
vt 0.952148 0.239990
vt 0.952026 0.239990
vt 0.952026 0.239746
f 2/64/2 24/65/24 33/66/33
vt 0.372192 0.203369
vt 0.371216 0.203369
vt 0.372070 0.203125
f 52/67/52 42/68/42 4/69/4
vt 0.498657 0.779541
vt 0.499146 0.779541
vt 0.498779 0.779785
f 44/70/44 19/71/19 50/72/50
vt 0.873779 0.162598
vt 0.874023 0.162842
vt 0.873779 0.162842
f 48/73/48 27/74/27 29/75/29
vt 0.226746 0.588501
vt 0.226807 0.588379
vt 0.226868 0.589233
f 34/76/34 23/77/23 45/78/45
vt 0.079163 0.628662
vt 0.079193 0.628662
vt 0.079254 0.628906
f 24/79/24 47/80/47 42/81/42
vt 0.709473 0.573730
vt 0.709717 0.572754
vt 0.709717 0.573242
f 8/82/8 44/83/44 20/84/20
vt 0.956421 0.358521
vt 0.956482 0.358398
vt 0.956482 0.358521
f 33/85/33 27/86/27 48/87/48
vt 0.034424 0.624023
vt 0.034668 0.623535
vt 0.034668 0.624023
f 3/88/3 21/89/21 35/90/35
vt 0.969727 0.463623
vt 0.969604 0.463623
vt 0.969666 0.463501
f 6/91/6 14/92/14 9/93/9
vt 0.230103 0.502441
vt 0.230225 0.501953
vt 0.230225 0.502441
f 46/94/46 21/95/21 52/96/52
vt 0.943848 0.542847
vt 0.943909 0.542786
vt 0.943970 0.542847
f 9/97/9 14/98/14 32/99/32
vt 0.311279 0.469727
vt 0.311523 0.469727
vt 0.311279 0.470215
f 27/100/27 1/101/1 29/102/29
vt 0.055420 0.343262
vt 0.055908 0.343262
vt 0.055786 0.343506
f 26/103/26 18/104/18 5/105/5
vt 0.500488 0.193359
vt 0.500977 0.193359
vt 0.500977 0.194336
f 24/106/24 42/107/42 7/108/7
vt 0.094727 0.575195
vt 0.094238 0.575195
vt 0.094727 0.574219
f 40/109/40 45/110/45 23/111/23
vt 0.957153 0.781006
vt 0.958130 0.781006
vt 0.958069 0.781128
f 40/112/40 1/113/1 35/114/35
vt 0.485596 0.490723
vt 0.485840 0.490845
vt 0.485718 0.490845
f 28/115/28 13/116/13 41/117/41
vt 0.466553 0.097168
vt 0.467285 0.096191
vt 0.466309 0.097656
f 17/118/17 36/119/36 10/120/10
vt 0.493896 0.513672
vt 0.493896 0.513428
vt 0.494019 0.513306
f 30/121/30 26/122/26 9/123/9
vt 0.866333 0.448242
vt 0.866333 0.448486
vt 0.866211 0.448730
f 11/124/11 20/125/20 51/126/51
vt 0.598755 0.796631
vt 0.599731 0.796631
vt 0.599609 0.796875
f 25/127/25 48/128/48 29/129/29
vt 0.641296 0.397583
vt 0.641235 0.397583
vt 0.641235 0.397461
f 33/130/33 48/131/48 25/132/25
vt 0.359894 0.509399
vt 0.359924 0.509399
vt 0.359924 0.509460
f 6/133/6 9/134/9 50/135/50
vt 0.959991 0.549500
vt 0.960022 0.549438
vt 0.960022 0.549561
f 11/136/11 22/137/22 47/138/47
vt 0.760254 0.507324
vt 0.760315 0.506836
vt 0.760376 0.506836
f 50/139/50 9/140/9 51/141/51
vt 0.355042 0.649109
vt 0.355011 0.649170
vt 0.355042 0.649048
f 4/142/4 5/143/5 52/144/52
vt 0.232056 0.600098
vt 0.231964 0.600037
vt 0.231995 0.599976
f 50/145/50 20/146/20 44/147/44
vt 0.230530 0.402466
vt 0.230286 0.402954
vt 0.230255 0.402893
f 11/148/11 8/149/8 20/150/20
vt 0.113373 0.778625
vt 0.113220 0.778442
vt 0.113586 0.778687
f 52/151/52 5/152/5 46/153/46
vt 0.622559 0.558594
vt 0.622070 0.558594
vt 0.622559 0.557617
f 25/154/25 29/155/29 37/156/37
vt 0.408325 0.598145
vt 0.408081 0.598633
vt 0.407959 0.598633
f 13/157/13 1/158/1 27/159/27
vt 0.567505 0.582947
vt 0.567505 0.582886
vt 0.567535 0.582886
f 13/160/13 52/161/52 3/162/3
vt 0.194092 0.428955
vt 0.194214 0.428955
vt 0.194092 0.429199
f 3/163/3 1/164/1 13/165/13
vt 0.533813 0.329346
vt 0.532898 0.329468
vt 0.533752 0.329224
f 47/166/47 24/167/24 11/168/11
vt 0.288452 0.344482
vt 0.288330 0.344482
vt 0.288361 0.344421
f 8/169/8 24/170/24 2/171/2
vt 0.012695 0.385254
vt 0.012634 0.385376
vt 0.012573 0.385254
f 34/172/34 46/173/46 18/174/18
vt 0.250977 0.612305
vt 0.250977 0.612793
vt 0.250732 0.612305
f 22/175/22 4/176/4 47/177/47
vt 0.126465 0.482666
vt 0.126465 0.482910
vt 0.125977 0.482422
f 39/178/39 23/179/23 34/180/34
vt 0.942444 0.780884
vt 0.942383 0.780762
vt 0.942627 0.780762
f 32/181/32 31/182/31 15/183/15
vt 0.017365 0.584229
vt 0.017395 0.584229
vt 0.017395 0.584290
f 4/184/4 22/185/22 26/186/26
vt 0.536377 0.614990
vt 0.536133 0.615479
vt 0.536133 0.615417
f 23/187/23 39/188/39 49/189/49
vt 0.074158 0.644775
vt 0.074097 0.644775
vt 0.074066 0.644714
f 47/190/47 4/191/4 42/192/42
vt 0.069092 0.124268
vt 0.070068 0.124268
vt 0.070801 0.124512
f 14/193/14 6/194/6 43/195/43
vt 0.920563 0.344055
vt 0.920593 0.344116
vt 0.920502 0.344177
f 3/196/3 35/197/35 1/198/1
vt 0.721680 0.519531
vt 0.721191 0.519531
vt 0.721680 0.518555
f 18/199/18 46/200/46 5/201/5
vt 0.756836 0.444336
vt 0.756836 0.443359
vt 0.757324 0.444336
f 43/202/43 19/203/19 38/204/38
vt 0.847900 0.195801
vt 0.848145 0.196289
vt 0.847412 0.196777
f 25/205/25 37/206/37 12/207/12
vt 0.125977 0.748047
vt 0.126465 0.747070
vt 0.126953 0.748047
f 35/208/35 45/209/45 40/210/40
vt 0.364624 0.093506
vt 0.364380 0.093506
vt 0.364502 0.093262
f 22/211/22 11/212/11 51/213/51
vt 0.440674 0.162109
vt 0.440918 0.162109
vt 0.441040 0.162354
f 37/214/37 16/215/16 10/216/10
vt 0.373535 0.664062
vt 0.373779 0.663086
vt 0.373779 0.664062
f 12/217/12 37/218/37 38/219/38
vt 0.857666 0.378906
vt 0.857727 0.378784
vt 0.857788 0.378906
f 7/220/7 28/221/28 27/222/27
vt 0.484619 0.490234
vt 0.484741 0.490234
vt 0.484863 0.490356
f 7/223/7 42/224/42 28/225/28
vt 0.484985 0.490356
vt 0.485107 0.490479
f 28/225/28 42/226/42 13/227/13
vt 0.152344 0.689453
vt 0.152344 0.689941
vt 0.151855 0.689453
f 29/228/29 16/229/16 37/230/37
vt 0.126465 0.425293
vt 0.126221 0.425293
vt 0.126343 0.425049
f 31/231/31 49/232/49 39/233/39
vt 0.709717 0.609863
vt 0.709473 0.610352
vt 0.709473 0.609863
f 15/234/15 18/235/18 30/236/30
vt 0.343994 0.554688
vt 0.344238 0.554688
vt 0.343994 0.555664
f 26/237/26 30/238/30 18/239/18
vt 0.214294 0.951416
vt 0.213501 0.950684
vt 0.214355 0.951172
f 29/240/29 1/241/1 16/242/16
vt 0.584961 0.082520
vt 0.584473 0.083008
vt 0.584717 0.082520
f 38/243/38 37/244/37 10/245/10
vt 0.988770 0.679688
vt 0.989014 0.680664
vt 0.988525 0.679688
f 31/246/31 39/247/39 15/248/15
vt 0.194946 0.204590
vt 0.195068 0.204102
vt 0.195068 0.204590
f 50/249/50 19/250/19 6/251/6
vt 0.710083 0.732422
vt 0.710205 0.732422
vt 0.710571 0.733398
f 12/252/12 2/253/2 25/254/25
vt 0.750977 0.728027
vt 0.750732 0.728271
vt 0.750488 0.728271
f 43/255/43 38/256/38 10/257/10
vt 0.186157 0.693115
vt 0.186035 0.694336
vt 0.186035 0.693359
f 18/258/18 15/259/15 34/260/34
vt 0.856689 0.828125
vt 0.856567 0.828369
vt 0.856445 0.828125
f 1/261/1 40/262/40 16/263/16
vt 0.309692 0.203369
vt 0.308838 0.203613
vt 0.309204 0.203369
f 5/264/5 4/265/4 26/266/26
vt 0.736328 0.807617
vt 0.736084 0.807129
vt 0.736328 0.807373
f 17/267/17 10/268/10 16/269/16
vt 0.712891 0.512939
vt 0.712891 0.512695
vt 0.713013 0.512939
f 40/270/40 23/271/23 17/272/17
vt 0.481567 0.355957
vt 0.481567 0.355713
vt 0.481628 0.355713
f 45/273/45 21/274/21 46/275/46
vt 0.705811 0.163330
vt 0.705872 0.163574
vt 0.705811 0.163574
f 44/276/44 12/277/12 19/278/19
vt 0.324158 0.199097
vt 0.324341 0.198975
vt 0.324219 0.199219
f 20/279/20 50/280/50 51/281/51
vt 0.833252 0.339355
vt 0.833069 0.339233
vt 0.833099 0.339172
f 32/282/32 49/283/49 31/284/31
vt 0.062134 0.718994
vt 0.061890 0.719238
vt 0.062073 0.718994
f 26/285/26 22/286/22 51/287/51
vt 0.709473 0.573242
f 8/82/8 2/288/2 44/83/44
vt 0.177917 0.595825
vt 0.178009 0.595886
vt 0.177979 0.595947
f 7/289/7 27/290/27 33/291/33
vt 0.150330 0.483643
vt 0.150269 0.483398
vt 0.150299 0.483276
f 9/292/9 26/293/26 51/294/51
vt 0.886169 0.632812
vt 0.886139 0.632812
vt 0.886047 0.632568
f 23/295/23 49/296/49 17/297/17
# 100 faces, 297 coords texture

# End of File
