# Blender 4.4.1
# www.blender.org
o Sphere
v 0.000000 3.168372 -0.923880
v 0.000000 1.181241 -1.000000
v 0.000000 -0.011731 -0.923880
v 0.000000 -0.922626 -0.382683
v 0.146447 10.250600 -0.353553
v 0.270598 6.151177 -0.653281
v 0.353553 3.168372 -0.853553
v 0.382683 1.181241 -0.923880
v 0.353553 -0.011731 -0.853553
v 0.270598 -0.642576 -0.653281
v 0.146447 -0.922626 -0.353553
v 0.270598 10.250600 -0.270598
v 0.500000 6.151177 -0.500000
v 0.653282 3.168372 -0.653281
v 0.707107 1.181241 -0.707107
v 0.653282 -0.011731 -0.653281
v 0.500000 -0.642576 -0.500000
v 0.270598 -0.922626 -0.270598
v 0.353553 10.250601 -0.146447
v 0.653281 6.151177 -0.270598
v 0.853553 3.168372 -0.353553
v 0.923880 1.181241 -0.382683
v 0.853553 -0.011731 -0.353553
v 0.653281 -0.642576 -0.270598
v 0.353553 -0.922626 -0.146447
v 0.382683 10.250600 0.000000
v 0.707107 6.151177 0.000000
v 0.923880 3.168372 0.000000
v 1.000000 1.181241 0.000000
v 0.923880 -0.011731 0.000000
v 0.707107 -0.642576 0.000000
v 0.382683 -0.922626 0.000000
v 0.353553 10.250601 0.146447
v 0.653281 6.151177 0.270598
v 0.853553 3.168372 0.353554
v 0.923879 1.181241 0.382684
v 0.853553 -0.011731 0.353554
v 0.653281 -0.642576 0.270598
v 0.353553 -0.922626 0.146447
v 0.270598 10.250601 0.270598
v 0.500000 6.151177 0.500000
v 0.653281 3.168373 0.653282
v 0.707107 1.181241 0.707107
v 0.653281 -0.011731 0.653282
v 0.500000 -0.642576 0.500000
v 0.270598 -0.922626 0.270598
v 0.146447 10.250600 0.353553
v 0.270598 6.151177 0.653281
v 0.353553 3.168373 0.853553
v 0.382683 1.181241 0.923880
v 0.353553 -0.011731 0.853553
v 0.270598 -0.642576 0.653281
v 0.146447 -0.922626 0.353553
v -0.000000 10.250600 0.382683
v -0.000000 6.151177 0.707107
v -0.000000 3.168373 0.923879
v -0.000000 1.181241 1.000000
v -0.000000 -0.011731 0.923879
v -0.000000 -0.642576 0.707107
v -0.000000 -0.922626 0.382683
v 0.000000 -1.000000 0.000000
v 0.000000 15.466511 0.000000
v -0.146447 10.250601 0.353553
v -0.270598 6.151177 0.653281
v -0.353554 3.168373 0.853553
v -0.382684 1.181241 0.923879
v -0.353554 -0.011731 0.853553
v -0.270598 -0.642576 0.653281
v -0.146447 -0.922626 0.353553
v -0.270598 10.250600 0.270598
v -0.500000 6.151177 0.500000
v -0.653282 3.168373 0.653281
v -0.707107 1.181241 0.707106
v -0.653282 -0.011731 0.653281
v -0.500000 -0.642576 0.500000
v -0.270598 -0.922626 0.270598
v -0.353553 10.250600 0.146446
v -0.653281 6.151177 0.270598
v -0.853553 3.168373 0.353553
v -0.923880 1.181241 0.382683
v -0.853553 -0.011731 0.353553
v -0.653281 -0.642576 0.270598
v -0.353553 -0.922626 0.146446
v -0.382683 10.250600 -0.000000
v -0.707107 6.151178 -0.000000
v -0.923879 3.168373 -0.000000
v -1.000000 1.181241 -0.000001
v -0.923879 -0.011731 -0.000000
v -0.707107 -0.642576 -0.000000
v -0.382683 -0.922626 -0.000000
v -0.353553 10.250600 -0.146447
v -0.653281 6.151178 -0.270598
v -0.853553 3.168373 -0.353554
v -0.923879 1.181241 -0.382684
v -0.853553 -0.011731 -0.353554
v -0.653281 -0.642576 -0.270598
v -0.353553 -0.922626 -0.146447
v -0.270598 10.250600 -0.270598
v -0.500000 6.151178 -0.500000
v -0.653281 3.168373 -0.653282
v -0.707106 1.181241 -0.707107
v -0.653281 -0.011731 -0.653282
v -0.500000 -0.642576 -0.500000
v -0.270598 -0.922626 -0.270598
v -0.146446 10.250600 -0.353554
v -0.270598 6.151178 -0.653281
v -0.353553 3.168374 -0.853553
v -0.382683 1.181241 -0.923880
v -0.353553 -0.011731 -0.853553
v -0.270598 -0.642576 -0.653281
v -0.146446 -0.922626 -0.353554
v 0.000000 10.250600 -0.382683
v 0.000000 6.151178 -0.707107
v 0.000000 -0.642576 -0.707107
vn 0.1289 -0.7507 -0.6480
vn 0.1947 -0.0625 -0.9789
vn 0.1946 0.0711 -0.9783
vn 0.1946 0.0718 -0.9783
vn 0.0394 -0.9794 -0.1980
vn 0.1849 -0.3194 -0.9294
vn 0.1950 0.0375 -0.9801
vn 0.1945 0.0774 -0.9778
vn 0.5542 0.0711 -0.8294
vn 0.5541 0.0718 -0.8293
vn 0.1122 -0.9794 -0.1679
vn 0.5265 -0.3194 -0.7879
vn 0.5552 0.0375 -0.8309
vn 0.5539 0.0774 -0.8290
vn 0.3671 -0.7507 -0.5493
vn 0.5545 -0.0625 -0.8298
vn 0.1679 -0.9794 -0.1122
vn 0.7879 -0.3194 -0.5265
vn 0.8309 0.0375 -0.5552
vn 0.8290 0.0774 -0.5539
vn 0.5493 -0.7507 -0.3671
vn 0.8298 -0.0625 -0.5545
vn 0.8294 0.0711 -0.5542
vn 0.8293 0.0718 -0.5541
vn 0.9778 0.0774 -0.1945
vn 0.6480 -0.7507 -0.1289
vn 0.9789 -0.0625 -0.1947
vn 0.9783 0.0711 -0.1946
vn 0.9783 0.0718 -0.1946
vn 0.1980 -0.9794 -0.0394
vn 0.9294 -0.3194 -0.1849
vn 0.9801 0.0375 -0.1950
vn 0.6480 -0.7507 0.1289
vn 0.9789 -0.0625 0.1947
vn 0.9783 0.0711 0.1946
vn 0.9783 0.0718 0.1946
vn 0.1980 -0.9794 0.0394
vn 0.9294 -0.3194 0.1849
vn 0.9801 0.0375 0.1950
vn 0.9778 0.0774 0.1945
vn 0.8293 0.0718 0.5541
vn 0.1679 -0.9794 0.1122
vn 0.7879 -0.3194 0.5265
vn 0.8309 0.0375 0.5552
vn 0.8290 0.0774 0.5539
vn 0.5493 -0.7507 0.3671
vn 0.8298 -0.0625 0.5545
vn 0.8294 0.0711 0.5542
vn 0.5265 -0.3194 0.7879
vn 0.5552 0.0375 0.8309
vn 0.5539 0.0774 0.8290
vn 0.3671 -0.7507 0.5493
vn 0.5545 -0.0625 0.8298
vn 0.5542 0.0711 0.8294
vn 0.5541 0.0718 0.8293
vn 0.1122 -0.9794 0.1679
vn 0.1289 -0.7507 0.6480
vn 0.1947 -0.0625 0.9789
vn 0.1946 0.0711 0.9783
vn 0.1946 0.0718 0.9783
vn 0.0394 -0.9794 0.1980
vn 0.1849 -0.3194 0.9294
vn 0.1950 0.0375 0.9801
vn 0.1945 0.0774 0.9778
vn -0.1947 -0.0625 0.9789
vn -0.1946 0.0711 0.9783
vn -0.1946 0.0718 0.9783
vn -0.0394 -0.9794 0.1980
vn -0.1849 -0.3194 0.9294
vn -0.1950 0.0375 0.9801
vn -0.1945 0.0774 0.9778
vn -0.1289 -0.7507 0.6480
vn -0.1122 -0.9794 0.1679
vn -0.5265 -0.3194 0.7879
vn -0.5552 0.0375 0.8309
vn -0.5539 0.0774 0.8290
vn -0.3671 -0.7507 0.5493
vn -0.5545 -0.0625 0.8298
vn -0.5542 0.0711 0.8294
vn -0.5541 0.0718 0.8293
vn -0.8309 0.0375 0.5552
vn -0.8290 0.0774 0.5539
vn -0.5493 -0.7507 0.3671
vn -0.8298 -0.0625 0.5545
vn -0.8294 0.0711 0.5542
vn -0.8293 0.0718 0.5541
vn -0.1679 -0.9794 0.1122
vn -0.7879 -0.3194 0.5265
vn -0.6480 -0.7507 0.1289
vn -0.9789 -0.0625 0.1947
vn -0.9783 0.0711 0.1946
vn -0.9783 0.0718 0.1946
vn -0.1980 -0.9794 0.0394
vn -0.9294 -0.3194 0.1849
vn -0.9801 0.0375 0.1950
vn -0.9778 0.0774 0.1945
vn -0.9783 0.0711 -0.1946
vn -0.9783 0.0718 -0.1946
vn -0.1980 -0.9794 -0.0394
vn -0.9294 -0.3194 -0.1849
vn -0.9801 0.0375 -0.1950
vn -0.9778 0.0774 -0.1945
vn -0.6480 -0.7507 -0.1289
vn -0.9789 -0.0625 -0.1947
vn -0.1679 -0.9794 -0.1122
vn -0.7879 -0.3194 -0.5265
vn -0.8309 0.0375 -0.5552
vn -0.8290 0.0774 -0.5539
vn -0.5493 -0.7507 -0.3671
vn -0.8298 -0.0625 -0.5545
vn -0.8294 0.0711 -0.5542
vn -0.8293 0.0718 -0.5541
vn -0.5539 0.0774 -0.8290
vn -0.3671 -0.7507 -0.5493
vn -0.5545 -0.0625 -0.8298
vn -0.5542 0.0711 -0.8294
vn -0.5541 0.0718 -0.8293
vn -0.1122 -0.9794 -0.1679
vn -0.5265 -0.3194 -0.7879
vn -0.5552 0.0375 -0.8309
vn -0.1289 -0.7507 -0.6480
vn -0.1947 -0.0625 -0.9789
vn -0.1946 0.0711 -0.9783
vn -0.1946 0.0718 -0.9783
vn -0.0394 -0.9794 -0.1980
vn -0.1849 -0.3194 -0.9294
vn -0.1950 0.0375 -0.9801
vn -0.1945 0.0774 -0.9778
s 0
f 114//1 11//1 4//1
f 2//2 9//2 3//2
f 1//3 6//3 7//3
f 112//4 62//4 5//4
f 61//5 4//5 11//5
f 114//6 9//6 10//6
f 1//7 8//7 2//7
f 113//8 5//8 6//8
f 6//9 14//9 7//9
f 5//10 62//10 12//10
f 61//11 11//11 18//11
f 9//12 17//12 10//12
f 7//13 15//13 8//13
f 5//14 13//14 6//14
f 11//15 17//15 18//15
f 8//16 16//16 9//16
f 61//17 18//17 25//17
f 16//18 24//18 17//18
f 14//19 22//19 15//19
f 12//20 20//20 13//20
f 18//21 24//21 25//21
f 15//22 23//22 16//22
f 13//23 21//23 14//23
f 12//24 62//24 19//24
f 20//25 26//25 27//25
f 24//26 32//26 25//26
f 22//27 30//27 23//27
f 20//28 28//28 21//28
f 19//29 62//29 26//29
f 61//30 25//30 32//30
f 23//31 31//31 24//31
f 21//32 29//32 22//32
f 31//33 39//33 32//33
f 29//34 37//34 30//34
f 27//35 35//35 28//35
f 26//36 62//36 33//36
f 61//37 32//37 39//37
f 30//38 38//38 31//38
f 28//39 36//39 29//39
f 26//40 34//40 27//40
f 33//41 62//41 40//41
f 61//42 39//42 46//42
f 38//43 44//43 45//43
f 35//44 43//44 36//44
f 33//45 41//45 34//45
f 39//46 45//46 46//46
f 36//47 44//47 37//47
f 34//48 42//48 35//48
f 44//49 52//49 45//49
f 43//50 49//50 50//50
f 41//51 47//51 48//51
f 45//52 53//52 46//52
f 43//53 51//53 44//53
f 41//54 49//54 42//54
f 40//55 62//55 47//55
f 61//56 46//56 53//56
f 53//57 59//57 60//57
f 50//58 58//58 51//58
f 48//59 56//59 49//59
f 47//60 62//60 54//60
f 61//61 53//61 60//61
f 52//62 58//62 59//62
f 50//63 56//63 57//63
f 47//64 55//64 48//64
f 57//65 67//65 58//65
f 55//66 65//66 56//66
f 54//67 62//67 63//67
f 61//68 60//68 69//68
f 59//69 67//69 68//69
f 56//70 66//70 57//70
f 54//71 64//71 55//71
f 59//72 69//72 60//72
f 61//73 69//73 76//73
f 68//74 74//74 75//74
f 66//75 72//75 73//75
f 64//76 70//76 71//76
f 68//77 76//77 69//77
f 66//78 74//78 67//78
f 64//79 72//79 65//79
f 63//80 62//80 70//80
f 73//81 79//81 80//81
f 70//82 78//82 71//82
f 75//83 83//83 76//83
f 73//84 81//84 74//84
f 71//85 79//85 72//85
f 70//86 62//86 77//86
f 61//87 76//87 83//87
f 75//88 81//88 82//88
f 83//89 89//89 90//89
f 80//90 88//90 81//90
f 78//91 86//91 79//91
f 77//92 62//92 84//92
f 61//93 83//93 90//93
f 81//94 89//94 82//94
f 80//95 86//95 87//95
f 77//96 85//96 78//96
f 85//97 93//97 86//97
f 84//98 62//98 91//98
f 61//99 90//99 97//99
f 89//100 95//100 96//100
f 86//101 94//101 87//101
f 84//102 92//102 85//102
f 89//103 97//103 90//103
f 88//104 94//104 95//104
f 61//105 97//105 104//105
f 96//106 102//106 103//106
f 94//107 100//107 101//107
f 91//108 99//108 92//108
f 96//109 104//109 97//109
f 94//110 102//110 95//110
f 92//111 100//111 93//111
f 91//112 62//112 98//112
f 98//113 106//113 99//113
f 104//114 110//114 111//114
f 101//115 109//115 102//115
f 99//116 107//116 100//116
f 98//117 62//117 105//117
f 61//118 104//118 111//118
f 102//119 110//119 103//119
f 100//120 108//120 101//120
f 110//121 4//121 111//121
f 109//122 2//122 3//122
f 107//123 113//123 1//123
f 105//124 62//124 112//124
f 61//125 111//125 4//125
f 110//126 3//126 114//126
f 108//127 1//127 2//127
f 105//128 113//128 106//128
f 114//1 10//1 11//1
f 2//2 8//2 9//2
f 1//3 113//3 6//3
f 114//6 3//6 9//6
f 1//7 7//7 8//7
f 113//8 112//8 5//8
f 6//9 13//9 14//9
f 9//12 16//12 17//12
f 7//13 14//13 15//13
f 5//14 12//14 13//14
f 11//15 10//15 17//15
f 8//16 15//16 16//16
f 16//18 23//18 24//18
f 14//19 21//19 22//19
f 12//20 19//20 20//20
f 18//21 17//21 24//21
f 15//22 22//22 23//22
f 13//23 20//23 21//23
f 20//25 19//25 26//25
f 24//26 31//26 32//26
f 22//27 29//27 30//27
f 20//28 27//28 28//28
f 23//31 30//31 31//31
f 21//32 28//32 29//32
f 31//33 38//33 39//33
f 29//34 36//34 37//34
f 27//35 34//35 35//35
f 30//38 37//38 38//38
f 28//39 35//39 36//39
f 26//40 33//40 34//40
f 38//43 37//43 44//43
f 35//44 42//44 43//44
f 33//45 40//45 41//45
f 39//46 38//46 45//46
f 36//47 43//47 44//47
f 34//48 41//48 42//48
f 44//49 51//49 52//49
f 43//50 42//50 49//50
f 41//51 40//51 47//51
f 45//52 52//52 53//52
f 43//53 50//53 51//53
f 41//54 48//54 49//54
f 53//57 52//57 59//57
f 50//58 57//58 58//58
f 48//59 55//59 56//59
f 52//62 51//62 58//62
f 50//63 49//63 56//63
f 47//64 54//64 55//64
f 57//65 66//65 67//65
f 55//66 64//66 65//66
f 59//69 58//69 67//69
f 56//70 65//70 66//70
f 54//71 63//71 64//71
f 59//72 68//72 69//72
f 68//74 67//74 74//74
f 66//75 65//75 72//75
f 64//76 63//76 70//76
f 68//77 75//77 76//77
f 66//78 73//78 74//78
f 64//79 71//79 72//79
f 73//81 72//81 79//81
f 70//82 77//82 78//82
f 75//83 82//83 83//83
f 73//84 80//84 81//84
f 71//85 78//85 79//85
f 75//88 74//88 81//88
f 83//89 82//89 89//89
f 80//90 87//90 88//90
f 78//91 85//91 86//91
f 81//94 88//94 89//94
f 80//95 79//95 86//95
f 77//96 84//96 85//96
f 85//97 92//97 93//97
f 89//100 88//100 95//100
f 86//101 93//101 94//101
f 84//102 91//102 92//102
f 89//103 96//103 97//103
f 88//104 87//104 94//104
f 96//106 95//106 102//106
f 94//107 93//107 100//107
f 91//108 98//108 99//108
f 96//109 103//109 104//109
f 94//110 101//110 102//110
f 92//111 99//111 100//111
f 98//113 105//113 106//113
f 104//114 103//114 110//114
f 101//115 108//115 109//115
f 99//116 106//116 107//116
f 102//119 109//119 110//119
f 100//120 107//120 108//120
f 110//121 114//121 4//121
f 109//122 108//122 2//122
f 107//123 106//123 113//123
f 110//126 109//126 3//126
f 108//127 107//127 1//127
f 105//128 112//128 113//128
